<svg width="36" height="50" viewBox="0 0 36 50" fill="none" xmlns="http://www.w3.org/2000/svg">
<path fill-rule="evenodd" clip-rule="evenodd" d="M19.1668 1.72324C15.5333 3.271 12.3566 6.35684 11.6268 10.233C11.2977 11.9875 11.4739 13.7922 11.3558 15.5719C11.1622 18.5089 10.1439 21.388 8.45009 23.7976C6.35746 26.7713 3.2853 29.0089 1.49079 32.1701C-1.38586 37.2365 0.000196934 44.4227 4.78944 47.7501C8.84887 50.5731 14.3215 50.4011 19.0875 49.0795C25.4467 47.3153 31.6568 43.1996 33.6507 36.9197C34.8258 33.2213 34.4192 29.2408 34.3941 25.3608C34.3728 22.2189 34.6128 19.0751 35.1103 15.9718C35.5904 12.9614 36.3163 9.9103 35.8498 6.89788C34.5489 -1.50559 25.2686 -0.875668 19.1668 1.72324Z" fill="white"/>
<path d="M17.8707 34C4.31529 34 12.4536 20.1549 20.1996 18" stroke="#32C9B5" stroke-width="1.5" stroke-linecap="round" stroke-linejoin="round"/>
<path d="M11.2392 27.6532C11.2392 27.6532 17.8274 30.1552 21.4273 25.9999C24.3382 22.6399 25.7936 17.36 25.3085 14C22.3976 15.92 17.1057 14.5476 12.6946 17.36C7.84313 20.4533 9.78372 24.7733 9.78372 24.7733" stroke="#32C9B5" stroke-width="1.5" stroke-linecap="round" stroke-linejoin="round"/>
<path d="M18.0923 34C25.2719 33.9491 31.0506 28.0876 30.9997 20.9078C30.9487 13.7282 25.0872 7.9493 17.9077 8.00034C10.7281 8.05125 4.9493 13.9128 5.00034 21.0925C5.02297 24.2787 6.19188 27.1877 8.11058 29.435" stroke="#32C9B5" stroke-width="1.5" stroke-linecap="round" stroke-linejoin="round"/>
</svg>
