<svg width="112" height="100" viewBox="0 0 112 100" fill="none" xmlns="http://www.w3.org/2000/svg">
<path fill-rule="evenodd" clip-rule="evenodd" d="M107.314 49.2491C107.314 49.2491 90.7904 32.6763 43.5039 52.8624C43.5039 52.8624 63.5277 65.8599 90.1108 60.3875C92.6507 59.8646 94.9105 58.4297 96.4647 56.3613L105.796 52.8769L107.314 49.2491Z" fill="#285069"/>
<path fill-rule="evenodd" clip-rule="evenodd" d="M43.5039 52.8632C43.5039 52.8632 69.9208 39.7608 92.2449 43.3515C92.2449 43.3515 87.8181 50.4409 96.4647 56.3622C96.4647 56.3622 94.8435 61.1824 82.9543 61.733C71.0651 62.2834 58.9058 62.0143 43.5039 52.8632Z" fill="#175D67"/>
<path fill-rule="evenodd" clip-rule="evenodd" d="M107.01 49.249C107.01 49.249 111.259 50.1561 111.866 51.6676L103.975 51.3653L107.01 49.249Z" fill="#0E3544"/>
<path fill-rule="evenodd" clip-rule="evenodd" d="M111.866 51.6685C111.866 51.6685 109.134 52.8777 105.796 52.8777L103.975 51.3662L111.866 51.6685Z" fill="#02080A"/>
<mask id="mask0_0_6633" style="mask-type:alpha" maskUnits="userSpaceOnUse" x="0" y="46" width="44" height="7">
<path fill-rule="evenodd" clip-rule="evenodd" d="M0 46.4277H43.4021V52.8773H0V46.4277Z" fill="white"/>
</mask>
<g mask="url(#mask0_0_6633)">
<path fill-rule="evenodd" clip-rule="evenodd" d="M43.4022 52.8773C43.4022 52.8773 26.1745 38.3658 0 52.8773H43.4022Z" fill="#285069"/>
</g>
<mask id="mask1_0_6633" style="mask-type:alpha" maskUnits="userSpaceOnUse" x="0" y="52" width="44" height="8">
<path fill-rule="evenodd" clip-rule="evenodd" d="M0 52.7764H43.4021V59.2259H0V52.7764Z" fill="white"/>
</mask>
<g mask="url(#mask1_0_6633)">
<path fill-rule="evenodd" clip-rule="evenodd" d="M43.4022 52.7764C43.4022 52.7764 26.1745 67.2878 0 52.7764H43.4022Z" fill="#285069"/>
</g>
<path fill-rule="evenodd" clip-rule="evenodd" d="M88.0884 41.5586C88.0884 46.0235 83.6538 49.1451 79.4285 47.6545L62.1484 41.5586H88.0884Z" fill="white"/>
<mask id="mask2_0_6633" style="mask-type:alpha" maskUnits="userSpaceOnUse" x="47" y="0" width="54" height="49">
<path fill-rule="evenodd" clip-rule="evenodd" d="M47.3965 0.708984H100.947V48.0496H47.3965V0.708984Z" fill="white"/>
</mask>
<g mask="url(#mask2_0_6633)">
<path fill-rule="evenodd" clip-rule="evenodd" d="M100.947 2.55131C100.947 2.55131 95.2279 6.39071 90.7163 13.662C91.7631 9.83958 93.0946 5.68716 94.7843 1.20153C94.7843 1.20153 89.65 5.78809 86.1857 13.6087C86.6942 9.6789 87.4397 5.38356 88.4935 0.708984C88.4935 0.708984 84.0416 5.9555 81.6905 14.1766C81.6516 10.2145 81.7967 5.8578 82.195 1.08337C82.195 1.08337 78.5099 6.89025 77.3166 15.3552C76.7308 11.4362 76.2728 7.101 76.0078 2.31742C76.0078 2.31742 73.16 8.57405 73.1473 17.1219C72.0257 13.3205 70.973 9.08947 70.0499 4.38744C70.0499 4.38744 68.0934 10.9749 69.2615 19.4433C67.6256 15.8319 65.9984 11.7853 64.4345 7.25441C64.4345 7.25441 63.4066 14.0475 65.7334 22.2751C63.6141 18.922 61.4435 15.137 59.2686 10.8637C59.2686 10.8637 59.1886 17.7329 62.63 25.5635C60.0676 22.5329 57.395 19.0811 54.6505 15.1467C54.6505 15.1467 55.52 21.9612 60.0101 29.246C57.0537 26.5952 53.9296 23.5427 50.6679 20.0217C50.6679 20.0217 52.4705 26.6525 57.9241 33.2526C54.6294 31.0321 51.1135 28.4367 47.3965 25.3961C47.3965 25.3961 51.6998 35.4749 62.1496 41.8362C68.4322 45.6606 87.5473 53.6704 87.9737 41.8222C88.2077 35.3158 90.4296 21.8665 100.947 2.55131Z" fill="white"/>
</g>
<mask id="mask3_0_6633" style="mask-type:alpha" maskUnits="userSpaceOnUse" x="47" y="52" width="54" height="48">
<path fill-rule="evenodd" clip-rule="evenodd" d="M47.3965 52.0244H100.947V99.365H47.3965V52.0244Z" fill="white"/>
</mask>
<g mask="url(#mask3_0_6633)">
<path fill-rule="evenodd" clip-rule="evenodd" d="M100.947 97.5228C100.947 97.5228 95.2279 93.6834 90.7163 86.412C91.7631 90.2345 93.0946 94.3869 94.7843 98.8725C94.7843 98.8725 89.65 94.286 86.1857 86.4653C86.6942 90.3952 87.4397 94.6905 88.4935 99.3651C88.4935 99.3651 84.0416 94.1186 81.6905 85.8974C81.6516 89.8596 81.7967 94.2163 82.195 98.9907C82.195 98.9907 78.5099 93.1838 77.3166 84.7188C76.7308 88.6379 76.2728 92.9731 76.0078 97.7567C76.0078 97.7567 73.16 91.5 73.1473 82.9521C72.0257 86.7536 70.973 90.9846 70.0499 95.6866C70.0499 95.6866 68.0934 89.0992 69.2615 80.6307C67.6256 84.2422 65.9984 88.2888 64.4345 92.8197C64.4345 92.8197 63.4066 86.0266 65.7334 77.799C63.6141 81.1521 61.4435 84.9371 59.2686 89.2104C59.2686 89.2104 59.1886 82.3412 62.63 74.5106C60.0676 77.5412 57.395 80.993 54.6505 84.9274C54.6505 84.9274 55.52 78.1128 60.0101 70.8281C57.0537 73.4789 53.9296 76.5313 50.6679 80.0523C50.6679 80.0523 52.4705 73.4216 57.9241 66.8215C54.6294 69.042 51.1135 71.6374 47.3965 74.678C47.3965 74.678 51.6998 64.5992 62.1496 58.2378C68.4322 54.4135 87.5473 46.4036 87.9737 58.2518C88.2077 64.7582 90.4296 78.2076 100.947 97.5228Z" fill="white"/>
</g>
<path fill-rule="evenodd" clip-rule="evenodd" d="M87.818 59.8611C87.818 59.8611 91.5744 76.7663 93.15 80.6587C93.15 80.6587 63.0831 80.2582 62.166 58.264C62.166 58.264 65.8392 58.1337 87.818 59.8611Z" fill="white"/>
<path fill-rule="evenodd" clip-rule="evenodd" d="M62.1484 58.2461C62.1484 58.2461 62.577 59.8564 65.335 60.5314C65.335 60.5314 62.8785 60.761 62.6486 62.0605C62.4186 63.3599 65.9314 63.6291 65.9314 63.6291C65.9314 63.6291 62.9591 64.9748 64.0399 66.5897C65.1207 68.2046 67.5526 66.5897 67.5526 66.5897C67.5526 66.5897 65.8333 69.4677 67.0984 70.7201C68.3632 71.9727 70.2547 69.8195 70.2547 69.8195C70.2547 69.8195 69.6556 73.2783 71.171 74.2403C72.6866 75.2025 74.578 72.2418 74.578 72.2418C74.578 72.2418 73.538 75.8974 75.4092 76.6265C77.2801 77.3556 78.9013 73.8567 78.9013 73.8567C78.9013 73.8567 78.8419 77.9384 80.628 78.5892C82.4141 79.2397 83.7651 74.9333 83.7651 74.9333C83.7651 74.9333 83.7224 79.7513 86.1756 79.8994C88.6288 80.0471 88.6288 75.7408 88.6288 75.7408C88.6288 75.7408 89.4395 79.778 92.9522 80.3163L88.0884 58.2461H62.1484Z" fill="#175D67"/>
<path fill-rule="evenodd" clip-rule="evenodd" d="M62.1484 41.828C62.1484 41.828 62.577 40.2177 65.335 39.5427C65.335 39.5427 62.8785 39.3131 62.6486 38.0136C62.4186 36.7142 65.9314 36.445 65.9314 36.445C65.9314 36.445 62.9591 35.0993 64.0399 33.4844C65.1207 31.8695 67.5526 33.4844 67.5526 33.4844C67.5526 33.4844 65.8333 30.6064 67.0984 29.354C68.3632 28.1014 70.2547 30.2546 70.2547 30.2546C70.2547 30.2546 69.6556 26.7958 71.171 25.8338C72.6866 24.8716 74.578 27.8323 74.578 27.8323C74.578 27.8323 73.538 24.1767 75.4092 23.4476C77.2801 22.7184 78.9013 26.2174 78.9013 26.2174C78.9013 26.2174 78.8419 22.1357 80.628 21.4849C82.4141 20.8344 83.7651 25.1408 83.7651 25.1408C83.7651 25.1408 83.7224 20.3228 86.1756 20.1747C88.6288 20.027 88.6288 24.3333 88.6288 24.3333C88.6288 24.3333 89.4395 20.2961 92.9522 19.7578L88.0884 41.828H62.1484Z" fill="#175D67"/>
<path fill-rule="evenodd" clip-rule="evenodd" d="M31.3245 58.2986C33.5661 57.753 35.0696 57.1695 35.0696 57.1695L31.7049 52.7764L34.7223 48.3627C34.7223 48.3627 33.3953 47.9121 31.4585 47.4443L27.832 52.8628L31.3245 58.2986Z" fill="#12746A"/>
<path fill-rule="evenodd" clip-rule="evenodd" d="M27.8311 52.8627L31.4576 47.4442C30.2663 47.1564 28.845 46.8631 27.3561 46.6631L23.5078 53.1318L26.5125 59.1177C28.2792 58.9559 29.9415 58.6348 31.3236 58.2984L27.8311 52.8627Z" fill="#175D67"/>
<path fill-rule="evenodd" clip-rule="evenodd" d="M16.5372 47.3027C10.3864 49.0414 7.83594 52.7761 7.83594 52.7761C7.83594 52.7761 9.79495 56.1112 15.3575 57.9823L13.5103 53.1317L16.5372 47.3027Z" fill="#12746A"/>
<path fill-rule="evenodd" clip-rule="evenodd" d="M27.3559 46.6628C25.9657 46.476 24.5201 46.4297 23.1488 46.4297C22.3046 46.4297 21.5043 46.4711 20.7377 46.5403L17.5957 52.8241L21.1344 59.1187C21.9166 59.1811 22.7351 59.2183 23.6011 59.2183C24.5836 59.2183 25.5623 59.2046 26.5123 59.1174L23.5076 53.1315L27.3559 46.6628Z" fill="#12746A"/>
<path fill-rule="evenodd" clip-rule="evenodd" d="M20.7376 46.541C19.1828 46.6812 17.7853 46.9504 16.5364 47.3035L13.5098 53.1322L15.3566 57.9828C16.966 58.5241 18.8815 58.9396 21.1342 59.1194L17.5956 52.8248L20.7376 46.541Z" fill="#175D67"/>
<path fill-rule="evenodd" clip-rule="evenodd" d="M96.4642 56.3615C96.4642 56.3615 95.3834 57.4381 92.6813 56.0924L94.0323 55.5541C94.0323 55.5541 91.8707 55.2849 91.06 53.67H92.1409C92.1409 53.67 89.9792 52.3243 89.709 50.7094H90.7898C90.7898 50.7094 89.1686 46.6722 92.1409 43.4424L98.3556 52.8626L96.4642 56.3615Z" fill="#285069"/>
<path fill-rule="evenodd" clip-rule="evenodd" d="M105.922 52.8625C105.922 52.8625 101.869 56.3614 96.4648 56.3614L97.5457 53.1316L105.514 52.6426L105.922 52.8625Z" fill="#285069"/>
<path fill-rule="evenodd" clip-rule="evenodd" d="M99.1973 49.8544C99.1973 48.8405 100.022 48.0186 101.04 48.0186C102.058 48.0186 102.883 48.8405 102.883 49.8544C102.883 50.8683 102.058 51.6903 101.04 51.6903C100.022 51.6903 99.1973 50.8683 99.1973 49.8544Z" fill="white"/>
<path fill-rule="evenodd" clip-rule="evenodd" d="M100.117 49.8536C100.117 49.3465 100.53 48.9355 101.039 48.9355C101.548 48.9355 101.96 49.3465 101.96 49.8536C101.96 50.3607 101.548 50.7717 101.039 50.7717C100.53 50.7717 100.117 50.3607 100.117 49.8536Z" fill="#0B2A3A"/>
</svg>
