<svg width="130" height="169" viewBox="0 0 130 169" fill="none" xmlns="http://www.w3.org/2000/svg">
<mask id="mask0_0_6418" style="mask-type:alpha" maskUnits="userSpaceOnUse" x="21" y="0" width="109" height="169">
<path fill-rule="evenodd" clip-rule="evenodd" d="M130 0L21.0475 0L21.0475 169L130 169L130 0Z" fill="white"/>
</mask>
<g mask="url(#mask0_0_6418)">
<path fill-rule="evenodd" clip-rule="evenodd" d="M27.2382 14.8845L24.7618 11.7835L26.3235 4.93675C28.0358 1.88733 31.2567 0 34.7491 0L49.8267 0C53.7606 0 57.3021 2.38827 58.7827 6.03945L62.8328 16.0282C63.8551 18.5494 64.3808 21.2451 64.3808 23.9667L64.3808 125.473C64.3808 137.834 74.0962 148.235 86.4315 148.528C99.1385 148.829 109.572 138.56 109.572 125.897V107.186L123.19 96.1283H130V125.348C130 149.077 111.086 168.768 87.4011 168.998C63.4838 169.23 43.9523 149.806 43.9523 125.897L43.9523 39.4729C43.9523 36.8623 42.7885 34.3885 40.7786 32.7274L21.0475 17.3654L27.2382 14.8845Z" fill="#FFBBBB"/>
</g>
<mask id="mask1_0_6418" style="mask-type:alpha" maskUnits="userSpaceOnUse" x="21" y="0" width="109" height="169">
<path fill-rule="evenodd" clip-rule="evenodd" d="M34.7491 0C31.2567 0 28.0358 1.88733 26.3235 4.93675L24.7618 11.7835L27.2382 14.8845L21.0479 17.365L40.7786 32.727C42.7885 34.3884 43.9523 36.8623 43.9523 39.4725L43.9523 125.897C43.9523 149.806 63.4838 169.23 87.4011 168.998C111.086 168.768 130 149.077 130 125.348V96.1283H123.19L109.572 107.186V125.897C109.572 138.56 99.1385 148.829 86.4315 148.527C74.0962 148.235 64.3808 137.834 64.3808 125.473L64.3808 23.9667C64.3808 21.2451 63.8555 18.5493 62.8328 16.0278L58.7827 6.03945C57.3021 2.38827 53.7606 0 49.8267 0L34.7491 0Z" fill="white"/>
</mask>
<g mask="url(#mask1_0_6418)">
<path fill-rule="evenodd" clip-rule="evenodd" d="M27.2382 14.8845L24.7618 11.7835L26.3235 4.93675C28.0358 1.88733 31.2567 0 34.7491 0L49.8267 0C53.7606 0 57.3021 2.38827 58.7827 6.03945L62.8328 16.0278C63.8555 18.5493 64.3808 21.2451 64.3808 23.9667L64.3808 125.473C64.3808 137.834 74.0962 148.235 86.4315 148.527C99.1385 148.829 109.572 138.56 109.572 125.897V107.186L123.19 96.1283H130V125.348C130 149.077 111.086 168.768 87.4011 168.998C63.4838 169.23 43.9523 149.806 43.9523 125.897L43.9523 39.4725C43.9523 36.8623 42.7885 34.3884 40.7786 32.727L21.0479 17.365L27.2382 14.8845Z" fill="url(#paint0_linear_0_6418)"/>
</g>
<path fill-rule="evenodd" clip-rule="evenodd" d="M47.666 8.68305C47.666 5.60042 45.1717 3.10156 42.0948 3.10156C39.0178 3.10156 36.5231 5.60042 36.5231 8.68305C36.5231 11.7657 39.0178 14.2645 42.0948 14.2645C45.1717 14.2645 47.666 11.7657 47.666 8.68305Z" fill="white"/>
<path fill-rule="evenodd" clip-rule="evenodd" d="M45.1348 8.68243C45.1348 7.00103 43.7743 5.6377 42.096 5.6377C40.4173 5.6377 39.0568 7.00103 39.0568 8.68243C39.0568 10.3638 40.4173 11.7272 42.096 11.7272C43.7743 11.7272 45.1348 10.3638 45.1348 8.68243Z" fill="#285069"/>
<path fill-rule="evenodd" clip-rule="evenodd" d="M1.23818 17.3652C1.23818 17.3652 24.143 23.1765 38.3809 16.9745L28.4763 16.125L1.23818 17.3652Z" fill="#1B3A49"/>
<mask id="mask2_0_6418" style="mask-type:alpha" maskUnits="userSpaceOnUse" x="0" y="9" width="40" height="10">
<path fill-rule="evenodd" clip-rule="evenodd" d="M39.6191 9.48926L7.62939e-06 9.48926V18.5738L39.6191 18.5738V9.48926Z" fill="white"/>
</mask>
<g mask="url(#mask2_0_6418)">
<path fill-rule="evenodd" clip-rule="evenodd" d="M13.712 18.2456C21.9382 18.9693 30.3759 18.4758 38.4964 16.9667C39.0947 16.8553 39.5901 16.3653 39.6178 15.7561C39.6533 14.975 38.9929 14.367 38.225 14.4272C31.1017 14.984 27.5025 10.9921 27.5021 10.9917C27.5021 10.9917 26.5883 10.2954 25.6752 9.48926C25.6752 9.48926 13.824 15.6936 1.28744 14.9824C0.586933 14.943 -6.86646e-05 15.5072 -6.86646e-05 16.2102C-6.86646e-05 16.86 0.503857 17.3981 1.15092 17.4395L13.712 18.2456Z" fill="#285069"/>
</g>
<defs>
<linearGradient id="paint0_linear_0_6418" x1="117.61" y1="4.62094" x2="85.2218" y2="88.6661" gradientUnits="userSpaceOnUse">
<stop stop-color="#DF6052"/>
<stop offset="1" stop-color="white"/>
</linearGradient>
</defs>
</svg>
