<svg width="116" height="106" viewBox="0 0 116 106" fill="none" xmlns="http://www.w3.org/2000/svg">
<mask id="mask0_0_6560" style="mask-type:alpha" maskUnits="userSpaceOnUse" x="-27" y="0" width="143" height="124">
<path fill-rule="evenodd" clip-rule="evenodd" d="M100.432 0.113281L115.323 106.072L-11.4311 123.886L-26.3227 17.9274L100.432 0.113281Z" fill="white"/>
</mask>
<g mask="url(#mask0_0_6560)">
<path fill-rule="evenodd" clip-rule="evenodd" d="M101.339 6.5727C101.339 6.5727 47.1058 -7.71151 8.97013 33.734C-29.1658 75.1799 -9.80669 123.658 -9.80669 123.658L101.339 6.5727Z" fill="#194A4E"/>
</g>
<mask id="mask1_0_6560" style="mask-type:alpha" maskUnits="userSpaceOnUse" x="-15" y="4" width="117" height="120">
<path fill-rule="evenodd" clip-rule="evenodd" d="M8.97022 33.7343C-15.2859 60.0956 -16.2822 89.3025 -13.7945 107.07L-13.7818 107.16C-12.356 117.277 -9.80663 123.658 -9.80663 123.658L101.339 6.57265C101.339 6.57265 47.1059 -7.71157 8.97022 33.7343Z" fill="white"/>
</mask>
<g mask="url(#mask1_0_6560)">
<path d="M82.6113 0.046875C82.6113 0.046875 75.5873 7.08631 81.7 14.6437" stroke="#12746A" stroke-width="3.231"/>
</g>
<mask id="mask2_0_6560" style="mask-type:alpha" maskUnits="userSpaceOnUse" x="-15" y="4" width="117" height="120">
<path fill-rule="evenodd" clip-rule="evenodd" d="M8.97022 33.7343C-15.2859 60.0956 -16.2822 89.3025 -13.7945 107.07L-13.7818 107.16C-12.356 117.277 -9.80663 123.658 -9.80663 123.658L101.339 6.57265C101.339 6.57265 47.1059 -7.71157 8.97022 33.7343Z" fill="white"/>
</mask>
<g mask="url(#mask2_0_6560)">
<path d="M58.502 3.0752C58.502 3.0752 54.1204 18.7291 61.7593 27.6901" stroke="#12746A" stroke-width="3.231"/>
</g>
<mask id="mask3_0_6560" style="mask-type:alpha" maskUnits="userSpaceOnUse" x="-15" y="4" width="117" height="120">
<path fill-rule="evenodd" clip-rule="evenodd" d="M8.97022 33.7343C-15.2859 60.0956 -16.2822 89.3025 -13.7945 107.07L-13.7818 107.16C-12.356 117.277 -9.80663 123.658 -9.80663 123.658L101.339 6.57265C101.339 6.57265 47.1059 -7.71157 8.97022 33.7343Z" fill="white"/>
</mask>
<g mask="url(#mask3_0_6560)">
<path d="M40.2555 9.92844C40.2555 9.92844 37.8738 27.3853 46.8725 39.8321" stroke="#12746A" stroke-width="3.231"/>
</g>
<mask id="mask4_0_6560" style="mask-type:alpha" maskUnits="userSpaceOnUse" x="-15" y="4" width="117" height="120">
<path fill-rule="evenodd" clip-rule="evenodd" d="M8.97022 33.7343C-15.2859 60.0956 -16.2822 89.3025 -13.7945 107.07L-13.7818 107.16C-12.356 117.277 -9.80663 123.658 -9.80663 123.658L101.339 6.57265C101.339 6.57265 47.1059 -7.71157 8.97022 33.7343Z" fill="white"/>
</mask>
<g mask="url(#mask4_0_6560)">
<path d="M20.3793 20.4087C20.3793 20.4087 19.222 43.5135 29.4801 56.2003" stroke="#12746A" stroke-width="3.231"/>
</g>
<mask id="mask5_0_6560" style="mask-type:alpha" maskUnits="userSpaceOnUse" x="-15" y="4" width="117" height="120">
<path fill-rule="evenodd" clip-rule="evenodd" d="M8.97022 33.7343C-15.2859 60.0956 -16.2822 89.3025 -13.7945 107.07L-13.7818 107.16C-12.356 117.277 -9.80663 123.658 -9.80663 123.658L101.339 6.57265C101.339 6.57265 47.1059 -7.71157 8.97022 33.7343Z" fill="white"/>
</mask>
<g mask="url(#mask5_0_6560)">
<path d="M0.00777573 41.6212C0.00777573 41.6212 2.7014 65.1158 13.2331 77.5351" stroke="#12746A" stroke-width="3.231"/>
</g>
<path fill-rule="evenodd" clip-rule="evenodd" d="M-11.0074 122.215C-11.0074 122.215 10.3873 37.3107 99.0352 7.13086C99.0352 7.13086 79.5293 120.908 -11.0074 122.215Z" fill="#12746A"/>
<mask id="mask6_0_6560" style="mask-type:alpha" maskUnits="userSpaceOnUse" x="-12" y="7" width="112" height="116">
<path fill-rule="evenodd" clip-rule="evenodd" d="M-11.0074 122.215C79.5292 120.908 99.0352 7.13086 99.0352 7.13086C10.3872 37.3104 -11.0074 122.215 -11.0074 122.215Z" fill="white"/>
</mask>
<g mask="url(#mask6_0_6560)">
<path d="M58.8812 26.9502C58.8812 26.9502 75.4312 44.2928 94.4765 38.4144" stroke="#17887C" stroke-width="3.231"/>
</g>
<mask id="mask7_0_6560" style="mask-type:alpha" maskUnits="userSpaceOnUse" x="-12" y="7" width="112" height="116">
<path fill-rule="evenodd" clip-rule="evenodd" d="M-11.0074 122.215C79.5292 120.908 99.0352 7.13086 99.0352 7.13086C10.3872 37.3104 -11.0074 122.215 -11.0074 122.215Z" fill="white"/>
</mask>
<g mask="url(#mask7_0_6560)">
<path d="M44.251 38.0083C44.251 38.0083 52.5589 59.9996 87.5113 63.2026" stroke="#17887C" stroke-width="3.231"/>
</g>
<mask id="mask8_0_6560" style="mask-type:alpha" maskUnits="userSpaceOnUse" x="-12" y="7" width="112" height="116">
<path fill-rule="evenodd" clip-rule="evenodd" d="M-11.0074 122.215C79.5292 120.908 99.0352 7.13086 99.0352 7.13086C10.3872 37.3104 -11.0074 122.215 -11.0074 122.215Z" fill="white"/>
</mask>
<g mask="url(#mask8_0_6560)">
<path d="M26.1508 52.1228C26.1508 52.1228 38.6643 85.8984 77.0038 86.3563" stroke="#17887C" stroke-width="3.231"/>
</g>
<mask id="mask9_0_6560" style="mask-type:alpha" maskUnits="userSpaceOnUse" x="-12" y="7" width="112" height="116">
<path fill-rule="evenodd" clip-rule="evenodd" d="M-11.0074 122.215C79.5292 120.908 99.0352 7.13086 99.0352 7.13086C10.3872 37.3104 -11.0074 122.215 -11.0074 122.215Z" fill="white"/>
</mask>
<g mask="url(#mask9_0_6560)">
<path d="M10.3336 72.8266C10.3336 72.8266 19.3056 104.968 53.4498 109.952" stroke="#17887C" stroke-width="3.231"/>
</g>
<mask id="mask10_0_6560" style="mask-type:alpha" maskUnits="userSpaceOnUse" x="-12" y="7" width="112" height="116">
<path fill-rule="evenodd" clip-rule="evenodd" d="M-11.0074 122.215C79.5292 120.908 99.0352 7.13086 99.0352 7.13086C10.3872 37.3104 -11.0074 122.215 -11.0074 122.215Z" fill="white"/>
</mask>
<g mask="url(#mask10_0_6560)">
<path d="M-3.71457 94.3466C-3.71457 94.3466 -6.32981 118.988 25.2355 124.936" stroke="#17887C" stroke-width="3.231"/>
</g>
<mask id="mask11_0_6560" style="mask-type:alpha" maskUnits="userSpaceOnUse" x="-12" y="7" width="112" height="116">
<path fill-rule="evenodd" clip-rule="evenodd" d="M-11.0074 122.215C79.5292 120.908 99.0352 7.13086 99.0352 7.13086C10.3872 37.3104 -11.0074 122.215 -11.0074 122.215Z" fill="white"/>
</mask>
<g mask="url(#mask11_0_6560)">
<path d="M76.9591 10.9461C76.9591 10.9461 84.5055 27.3517 101.75 22.3846" stroke="#17887C" stroke-width="3.231"/>
</g>
</svg>
