<svg xmlns="http://www.w3.org/2000/svg" xmlns:xlink="http://www.w3.org/1999/xlink" width="257.913" height="197.973" viewBox="0 0 257.913 197.973">
  <defs>
    <clipPath id="clip-path">
      <path id="Clip_30" data-name="Clip 30" d="M0,124H84V0H0Z" fill="none"/>
    </clipPath>
    <clipPath id="clip-path-2">
      <path id="Clip_5" data-name="Clip 5" d="M0,0H98.057V152H0Z" fill="none"/>
    </clipPath>
    <clipPath id="clip-path-3">
      <path id="Clip_8" data-name="Clip 8" d="M85.726,0a8.7,8.7,0,0,1,7.583,4.44h0L94.714,10.6l-2.229,2.789,5.571,2.231L80.3,29.435A7.869,7.869,0,0,0,77.443,35.5h0v77.731A38.787,38.787,0,0,1,38.339,152C17.022,151.791,0,134.081,0,112.739H0V86.459H6.129L18.386,96.4v16.829a20.369,20.369,0,0,0,20.826,20.354,20.6,20.6,0,0,0,19.846-20.736h0v-91.3a18.987,18.987,0,0,1,1.393-7.14h0L64.1,5.432A8.7,8.7,0,0,1,72.156,0h13.57Z" fill="none"/>
    </clipPath>
    <linearGradient id="linear-gradient" x1="0.383" y1="-0.039" x2="0.516" y2="0.498" gradientUnits="objectBoundingBox">
      <stop offset="0" stop-color="#df6052"/>
      <stop offset="1" stop-color="#fff"/>
    </linearGradient>
    <clipPath id="clip-path-4">
      <path id="Clip_17" data-name="Clip 17" d="M0,0H35.657V8.171H0Z" fill="none"/>
    </clipPath>
  </defs>
  <g id="Group_13" data-name="Group 13" transform="translate(-106.552 -27)">
    <g id="Group_56" data-name="Group 56" transform="translate(140 27)">
      <path id="Fill_1" data-name="Fill 1" d="M0,4.806A4.806,4.806,0,1,1,4.806,9.611,4.806,4.806,0,0,1,0,4.806" transform="translate(6.325 10.945)" fill="#541e0d"/>
      <path id="Fill_3" data-name="Fill 3" d="M0,2.925A2.925,2.925,0,1,1,2.925,5.85,2.925,2.925,0,0,1,0,2.925" transform="translate(8.206 12.825)" fill="#ad3a38"/>
      <path id="Fill_5" data-name="Fill 5" d="M0,4.806A4.806,4.806,0,1,1,4.806,9.611,4.806,4.806,0,0,1,0,4.806" transform="translate(28.473 10.945)" fill="#541e0d"/>
      <path id="Fill_7" data-name="Fill 7" d="M0,2.925A2.925,2.925,0,1,1,2.925,5.85,2.925,2.925,0,0,1,0,2.925" transform="translate(30.354 12.825)" fill="#ad3a38"/>
      <path id="Fill_9" data-name="Fill 9" d="M11.178,0C2.194,0,0,4.283,0,4.283v11.6A4.694,4.694,0,0,0,4.694,20.58H18.916a4.694,4.694,0,0,0,4.694-4.694V4.283S20.163,0,11.178,0" transform="translate(10.191 6.766)" fill="#fff7dc"/>
      <path id="Fill_11" data-name="Fill 11" d="M5.359,6.159,0,4.58V.425S5.568-1.363,7.239,2.4Z" transform="translate(13.362 13.248)" fill="#6b1c19"/>
      <path id="Fill_13" data-name="Fill 13" d="M1.88,6.159,7.239,4.58V.425S1.671-1.363,0,2.4Z" transform="translate(23.391 13.248)" fill="#6b1c19"/>
      <path id="Fill_15" data-name="Fill 15" d="M0,1.254A1.254,1.254,0,1,1,1.254,2.507,1.254,1.254,0,0,1,0,1.254" transform="translate(25.443 15.228)" fill="#27210b"/>
      <path id="Stroke_17" data-name="Stroke 17" d="M0,1.254A1.254,1.254,0,1,1,1.254,2.507,1.254,1.254,0,0,1,0,1.254Z" transform="translate(25.443 15.228)" fill="none" stroke="#de9532" stroke-miterlimit="10" stroke-width="0.5"/>
      <path id="Fill_19" data-name="Fill 19" d="M0,1.254A1.254,1.254,0,1,1,1.254,2.507,1.254,1.254,0,0,1,0,1.254" transform="translate(16.041 15.228)" fill="#27210b"/>
      <path id="Stroke_21" data-name="Stroke 21" d="M0,1.254A1.254,1.254,0,1,1,1.254,2.507,1.254,1.254,0,0,1,0,1.254Z" transform="translate(16.041 15.228)" fill="none" stroke="#de9532" stroke-miterlimit="10" stroke-width="0.5"/>
      <path id="Fill_23" data-name="Fill 23" d="M1.083,0H2.469a1.081,1.081,0,0,1,.922,1.644L2.7,2.779a1.081,1.081,0,0,1-1.844,0L.16,1.644A1.081,1.081,0,0,1,1.083,0" transform="translate(20.22 19.606)" fill="#541e0d"/>
      <path id="Stroke_25" data-name="Stroke 25" d="M0,0H0A1.045,1.045,0,0,0,1.045,1.045H6.477A1.045,1.045,0,0,0,7.522,0" transform="translate(18.235 22.541)" fill="none" stroke="#6b1c19" stroke-linecap="round" stroke-miterlimit="10" stroke-width="0.626"/>
      <path id="Fill_27" data-name="Fill 27" d="M23.811,4.788C23.655,4.484,21.2,0,11.91,0,2.3,0,0,4.806,0,4.806l.3-.1c-.064.07-.13.136-.193.208a8.618,8.618,0,0,1,1.288-.586l.419-.145c2.518-.814,7.248-1.295,10.2,4.91C16.193.313,23.924,4.91,23.924,4.91c-.037-.042-.076-.08-.113-.122" transform="translate(9.982 6.035)" fill="#cd7132"/>
      <path id="Clip_30-2" data-name="Clip 30" d="M0,124H84V0H0Z" fill="none"/>
      <g id="Group_56-2" data-name="Group 56" clip-path="url(#clip-path)">
        <path id="Fill_29" data-name="Fill 29" d="M0,10.447H10.447V0H0Z" transform="translate(16.668 26.093)" fill="#fff7dc"/>
        <path id="Fill_31" data-name="Fill 31" d="M0,.418A.418.418,0,1,1,.418.836.418.418,0,0,1,0,.418" transform="translate(20.847 20.661)" fill="#ad3a38"/>
        <path id="Fill_32" data-name="Fill 32" d="M0,.418A.418.418,0,1,1,.418.836.418.418,0,0,1,0,.418" transform="translate(22.309 20.661)" fill="#ad3a38"/>
        <path id="Stroke_33" data-name="Stroke 33" d="M15.253,2.925,0,0" transform="translate(0.475 19.511)" fill="none" stroke="#cd7132" stroke-linecap="round" stroke-miterlimit="10" stroke-width="0.5"/>
        <path id="Stroke_34" data-name="Stroke 34" d="M15.519.613,0,0" transform="translate(0.209 21.823)" fill="none" stroke="#cd7132" stroke-linecap="round" stroke-miterlimit="10" stroke-width="0.5"/>
        <path id="Stroke_35" data-name="Stroke 35" d="M15.436,0,0,1.713" transform="translate(0.292 22.436)" fill="none" stroke="#cd7132" stroke-linecap="round" stroke-miterlimit="10" stroke-width="0.5"/>
        <path id="Stroke_36" data-name="Stroke 36" d="M15.007,0,0,4" transform="translate(0.721 22.436)" fill="none" stroke="#cd7132" stroke-linecap="round" stroke-miterlimit="10" stroke-width="0.5"/>
        <path id="Stroke_37" data-name="Stroke 37" d="M0,2.925,15.253,0" transform="translate(28.416 19.511)" fill="none" stroke="#cd7132" stroke-linecap="round" stroke-miterlimit="10" stroke-width="0.5"/>
        <path id="Stroke_38" data-name="Stroke 38" d="M0,.613,15.519,0" transform="translate(28.416 21.823)" fill="none" stroke="#cd7132" stroke-linecap="round" stroke-miterlimit="10" stroke-width="0.5"/>
        <path id="Stroke_39" data-name="Stroke 39" d="M0,0,15.436,1.713" transform="translate(28.416 22.436)" fill="none" stroke="#cd7132" stroke-linecap="round" stroke-miterlimit="10" stroke-width="0.5"/>
        <path id="Stroke_40" data-name="Stroke 40" d="M0,0,15.007,4" transform="translate(28.416 22.436)" fill="none" stroke="#cd7132" stroke-linecap="round" stroke-miterlimit="10" stroke-width="0.5"/>
        <path id="Fill_41" data-name="Fill 41" d="M.105,0V1.821" transform="translate(6.745 62.947)" fill="#cd7132"/>
        <path id="Fill_42" data-name="Fill 42" d="M24.812,24.479l1.632,20.236A19.048,19.048,0,0,1,30.36,61.361c-2.285,10.118-5.875,26.111-5.875,26.111l.326,5.222H17.631s0-3.917,3.59-5.222c0,0,1.632-18.93-4.569-26.111,0,0-5.875,4.9,0,13.708L7.186,91.388H.006s-.326-3.59,3.917-3.917c0,0,6.2-4.243,3.264-14.361S-2.279,55.486,4.9,45.694c0,0,.979-7.181-2.285-20.562S4.115,4.569,9.011,0h12.21l3.264,19.257Z" transform="translate(7.173 31.306)" fill="#cd7132"/>
        <path id="Fill_43" data-name="Fill 43" d="M13.907,73.467s-4.325,4.325-8.423-3.415l-4.1-7.74S-3.395,52.068,4.8,44.327c0,0-11.2-37.082,2.732-43.7L13.031,0l7.1.631L18,46.832s-2.049,6.147,1.366,15.025S19.3,73.094,19.3,73.094a25.34,25.34,0,0,0-4.254-11.009s-4.553,3.87-1.138,11.383" transform="translate(8.651 30.686)" fill="#fff7dc"/>
        <path id="Fill_44" data-name="Fill 44" d="M0,0H9.562L.228,3.957Z" transform="translate(15.956 27.346)" fill="#cd7132"/>
        <path id="Fill_45" data-name="Fill 45" d="M3.895,0A36.074,36.074,0,0,0,18.232,23.7a38.465,38.465,0,0,0,31.826,5.671C47,33.988,39.223,33.431,34.474,33.035a41.743,41.743,0,0,1-27.5-13.042C5.241,18.124.892,12.931.455,10.426.222,9.089.233,6.983,0,5.645" transform="translate(33.941 86.214)" fill="#cd7132"/>
        <path id="Fill_46" data-name="Fill 46" d="M1.439,25.383s-2.83-7.4-.553-12.635L1.341,0,4.756,2.049,6.122,25.042Z" transform="translate(25.77 64.769)" fill="#cd7132"/>
        <path id="Fill_47" data-name="Fill 47" d="M1.349,58.453l13.877,1.472v-24.6l2.733,24.39,12.616.841S31.838,14.718,23.427,0L1.56.631s-3.364,9.882-.21,57.822" transform="translate(8.638 57.456)" fill="#ffc81a"/>
        <path id="Fill_48" data-name="Fill 48" d="M.142,27.334S-1.329,9.672,5.189,1.472L6.03.631s-2.523,7.359,0,13.246L16.964,0l1.262.631L16.642,26.858Z" transform="translate(10.055 30.753)" fill="#ffc81a"/>
        <path id="Fill_49" data-name="Fill 49" d="M0,2.733H18.083V0H0Z" transform="translate(9.777 54.303)" fill="#5c8fb8"/>
        <path id="Fill_50" data-name="Fill 50" d="M8.634,0S-2.293,0,.438,26.863l1.993-1.821S2.715,8.878,8.634,0" transform="translate(7.55 31.304)" fill="#cd7132"/>
        <path id="Fill_51" data-name="Fill 51" d="M3.285,0S-.305,5.549.021,11.75c.231,4.385,3.561,9.911,5.493,12.773a1.943,1.943,0,0,0,2.985.29l1.044-1.044a1.939,1.939,0,0,0,.172-2.548,34.093,34.093,0,0,1-5.038-9.635Z" transform="translate(6.733 53.819)" fill="#cd7132"/>
        <path id="Fill_52" data-name="Fill 52" d="M8.391.146s7.507-3.59,5.222,24.805L5.78,39.639v6.535A2.277,2.277,0,0,1,3.5,48.452H2.278A2.277,2.277,0,0,1,.033,45.791L1.863,35.07,7.086,24.3S2.516,10.917,8.391.146" transform="translate(18.827 31.114)" fill="#cd7132"/>
        <path id="Fill_53" data-name="Fill 53" d="M4.333.272C4.3.149,4.242,0,4.116,0a.274.274,0,0,0-.13.05C1.336,1.632-2.106,7.078,1.67,9.423,6.22,12.25,4.732,2.019,4.333.272" transform="translate(8.725 0)" fill="#5c8fb8"/>
        <path id="Fill_54" data-name="Fill 54" d="M5.49.923A8.349,8.349,0,0,0,3.61,2.242,14.783,14.783,0,0,0,2.165,3.906L0,6.666a5.89,5.89,0,0,0,3.333.251,11.3,11.3,0,0,0,5-1.528c1.223-.831,2.787-2.95,1.883-4.5C9.268-.749,6.777.253,5.49.923" transform="translate(1.556 8.542)" fill="#59799a"/>
        <path id="Fill_55" data-name="Fill 55" d="M18.625,6.495A16.263,16.263,0,0,0,11.5,3.462,23.337,23.337,0,0,0,5.49,3.124,9.973,9.973,0,0,0,.456,5.357a2.195,2.195,0,0,1,.114-2.8A5.094,5.094,0,0,1,3.158,1.126,27.007,27.007,0,0,1,17.039.712c1.43.409,5.513,2.152,6.1,3.154v7.605a.118.118,0,0,1-.226.047,15.122,15.122,0,0,0-4.286-5.024" transform="translate(10.82 7.123)" fill="#5c8fb8"/>
      </g>
    </g>
    <g id="Dier" transform="translate(222 49)">
      <g id="Group_6" data-name="Group 6">
        <path id="Clip_5-2" data-name="Clip 5" d="M0,0H98.057V152H0Z" fill="none"/>
        <g id="Group_6-2" data-name="Group 6" clip-path="url(#clip-path-2)">
          <path id="Fill_4" data-name="Fill 4" d="M92.486,13.387,94.714,10.6,93.309,4.44A8.7,8.7,0,0,0,85.726,0H72.156A8.7,8.7,0,0,0,64.1,5.432L60.45,14.416a18.991,18.991,0,0,0-1.393,7.14v91.3a20.6,20.6,0,0,1-19.846,20.736,20.37,20.37,0,0,1-20.826-20.354V96.4L6.129,86.459H0v26.28C0,134.081,17.022,151.791,38.339,152a38.787,38.787,0,0,0,39.1-38.765V35.5A7.868,7.868,0,0,1,80.3,29.435L98.057,15.619Z" transform="translate(0 0)" fill="#fbb"/>
        </g>
      </g>
      <g id="Group_9" data-name="Group 9" transform="translate(0)">
        <path id="Clip_8-2" data-name="Clip 8" d="M85.726,0a8.7,8.7,0,0,1,7.583,4.44h0L94.714,10.6l-2.229,2.789,5.571,2.231L80.3,29.435A7.869,7.869,0,0,0,77.443,35.5h0v77.731A38.787,38.787,0,0,1,38.339,152C17.022,151.791,0,134.081,0,112.739H0V86.459H6.129L18.386,96.4v16.829a20.369,20.369,0,0,0,20.826,20.354,20.6,20.6,0,0,0,19.846-20.736h0v-91.3a18.987,18.987,0,0,1,1.393-7.14h0L64.1,5.432A8.7,8.7,0,0,1,72.156,0h13.57Z" fill="none"/>
        <g id="Group_9-2" data-name="Group 9" clip-path="url(#clip-path-3)">
          <path id="Fill_7-2" data-name="Fill 7" d="M92.486,13.387,94.714,10.6,93.309,4.44A8.7,8.7,0,0,0,85.726,0H72.156A8.7,8.7,0,0,0,64.1,5.432L60.45,14.416a18.987,18.987,0,0,0-1.393,7.14v91.3a20.6,20.6,0,0,1-19.846,20.736,20.369,20.369,0,0,1-20.826-20.354V96.4L6.129,86.459H0v26.28C0,134.081,17.022,151.791,38.339,152a38.787,38.787,0,0,0,39.1-38.765V35.5A7.869,7.869,0,0,1,80.3,29.435L98.057,15.618Z" fill="url(#linear-gradient)"/>
        </g>
      </g>
      <path id="Fill_10" data-name="Fill 10" d="M0,5.02a5.014,5.014,0,1,1,5.014,5.02A5.017,5.017,0,0,1,0,5.02" transform="translate(74.1 2.789)" fill="#fff"/>
      <path id="Fill_12" data-name="Fill 12" d="M0,2.738A2.735,2.735,0,1,1,2.735,5.477,2.737,2.737,0,0,1,0,2.738" transform="translate(76.379 5.071)" fill="#285069"/>
      <path id="Fill_14" data-name="Fill 14" d="M33.428,1.115S12.814,6.342,0,.764L8.914,0Z" transform="translate(82.457 14.503)" fill="#1b3a49"/>
      <g id="Group_18" data-name="Group 18" transform="translate(81.343 8.534)">
        <path id="Clip_17-2" data-name="Clip 17" d="M0,0H35.657V8.171H0Z" fill="none"/>
        <g id="Group_18-2" data-name="Group 18" clip-path="url(#clip-path-4)">
          <path id="Fill_16" data-name="Fill 16" d="M23.316,7.876A83.094,83.094,0,0,1,1.01,6.725,1.206,1.206,0,0,1,0,5.636a1.152,1.152,0,0,1,1.254-1.2c6.411.5,9.65-3.09,9.651-3.09S11.728.725,12.55,0c0,0,10.666,5.58,21.949,4.941a1.107,1.107,0,0,1,.123,2.21Z" fill="#285069"/>
        </g>
      </g>
    </g>
    <path id="Fill_217" data-name="Fill 217" d="M61.308-117s63.646,9.087,71.5,60.372c0,0-38.047,3.427-58.953-27.107,0,0,31.459,31.319,8.11,72.678,0,0-28.221-16.964-31.943-67.892C50.019-78.949,65.69-35.24.45,0c0,0-9.687-66.287,60.858-117" transform="translate(364.464 116.493) rotate(-158)" fill="#17887c"/>
    <path id="Fill_217-2" data-name="Fill 217" d="M39.824,76s41.343-5.9,46.442-39.216c0,0-24.715-2.226-38.294,17.608,0,0,20.435-20.344,5.268-47.209,0,0-18.331,11.019-20.749,44.1,0,0,10.18-28.392-32.2-51.283C.292,0-6,43.058,39.824,76" transform="matrix(0.966, -0.259, 0.259, 0.966, 106.552, 115.982)" fill="#00222b"/>
  </g>
</svg>
