<svg id="Group_64" data-name="Group 64" xmlns="http://www.w3.org/2000/svg" width="105" height="159.237" viewBox="0 0 105 159.237">
  <path id="Fill_1" data-name="Fill 1" d="M14.157,0,0,47H2.143L15.872,1.257Z" transform="translate(63.128 72)" fill="#194a4e"/>
  <g id="Group_30" data-name="Group 30">
    <path id="Fill_2" data-name="Fill 2" d="M2.092,0S14.852,47.236,16.526,71.214H14.434S9.622,28.185,0,1.262Z" transform="translate(39.537 47.786)" fill="#194a4e"/>
    <path id="Fill_4" data-name="Fill 4" d="M12.97,33.423s4.184-17.668,5.02-20.612S17.157,2.191,9.625.35,0,4.4,0,7.342Z" transform="translate(86.814 52.222)" fill="#194a4e"/>
    <path id="Fill_6" data-name="Fill 6" d="M3.255,0S-8.251,22.716,12,69.952H14.1S-7.2,23.137,5.765,1.262Z" transform="translate(61.385 49.048)" fill="#194a4e"/>
    <path id="Fill_8" data-name="Fill 8" d="M5.186,8.371S10.416-3.291,22.967.915l22.593,38.7L27.151,36.251s1.674-13.041-5.439-13.882-.418,14.3-.418,14.3S7.039,34.585,1.837,20.717q-.167-.446-.322-.909C-3.39,5.122,5.186,8.371,5.186,8.371" transform="translate(54.224 18.686)" fill="#7ec399"/>
    <path id="Fill_10" data-name="Fill 10" d="M0,9.723S1.255-.793,12.97.048,25.521,13.089,24.684,20.24c0,0-13.388-8.413-14.643-2.1S25.1,24.447,25.1,24.447s2.51,14.3-2.51,23.978Z" transform="translate(77.191 9.878)" fill="#12746a"/>
    <path id="Fill_12" data-name="Fill 12" d="M32.458,16.406A16.311,16.311,0,0,0,0,14,44.853,44.853,0,0,1,19.145,32.53,16.384,16.384,0,0,0,32.458,16.406" transform="translate(27.998 10.347)" fill="#12746a"/>
    <path id="Fill_14" data-name="Fill 14" d="M0,2.945l13.382,24.52H16.31L1.674,0Z" transform="translate(36.19 91.535)" fill="#194a4e"/>
    <path id="Fill_19" data-name="Fill 19" d="M0,9.465A9.414,9.414,0,1,1,9.413,18.93,9.439,9.439,0,0,1,0,9.465" transform="translate(53.134 60.616)" fill="#7ec399"/>
    <path id="Fill_20" data-name="Fill 20" d="M14.631,4.531,3.347,22.716,0,0Z" transform="translate(56.063 70.292)" fill="#7ec399"/>
    <path id="Fill_21" data-name="Fill 21" d="M0,9.106,17.143,22.769,14.927,0Z" transform="translate(42.267 70.238)" fill="#12746a"/>
    <path id="Fill_22" data-name="Fill 22" d="M0,9.465A9.414,9.414,0,1,1,9.413,18.93,9.439,9.439,0,0,1,0,9.465" transform="translate(38.491 62.299)" fill="#12746a"/>
    <path id="Fill_23" data-name="Fill 23" d="M0,0,4.639,27.725,12.17,6.692Z" transform="translate(54.562 65.072)" fill="#7ec399"/>
    <path id="Fill_24" data-name="Fill 24" d="M37.654,11.819S38.909-.8,23.429.04-1.674,17.288.418,32.011c0,0,11.087-14.092,18.409-9.676C28.487,28.163,0,40.845,0,40.845L2.092,63.561Z" fill="#7ec399"/>
    <path id="Fill_25" data-name="Fill 25" d="M35.562.452S52.3-3.755,56.9,13.493,33.889,39.574,33.889,39.574,32.634,23.168,26.358,24.43s0,18.089,0,18.089L0,52.194Z" transform="translate(2.092 11.367)" fill="#12746a"/>
    <path id="Fill_26" data-name="Fill 26" d="M21.337,5.236S17.363-2.125,9.2.609C1.907,3.055,3.765,24.166,0,30.476c0,0,15.061-10.516,21.337-25.24" transform="translate(9.623 75.993)" fill="#7ec399"/>
    <path id="Fill_27" data-name="Fill 27" d="M21.337.343S33.052-2.6,32.633,8.757,0,25.583,0,25.583,15.689,14.015,21.337.343" transform="translate(9.623 80.886)" fill="#12746a"/>
    <path id="Fill_28" data-name="Fill 28" d="M0,7.362a7.322,7.322,0,1,1,7.322,7.362A7.342,7.342,0,0,1,0,7.362" transform="translate(14.016 75.97)" fill="#7ec399"/>
    <path id="Fill_29" data-name="Fill 29" d="M1.033.706,0,7.46l7.631.112L4.7,0Z" transform="translate(13.079 81.439)" fill="#7ec399"/>
  </g>
  <path id="Fill_62" data-name="Fill 62" d="M26,28,12.809.491S1.32-2.894.044,8.109,26,28,26,28" transform="translate(74 58)" fill="#12746a"/>
  <path id="Fill_217" data-name="Fill 217" d="M32.488,62s33.727-4.815,37.887-31.992c0,0-20.162-1.816-31.24,14.364,0,0,16.671-16.6,4.3-38.513,0,0-14.955,8.989-16.927,35.977,0,0,8.3-23.162-26.267-41.836,0,0-5.133,35.127,32.25,62" transform="matrix(0.839, -0.545, 0.545, 0.839, 12.211, 107.239)" fill="#00222b"/>
</svg>
