<svg width="21" height="24" viewBox="0 0 21 24" fill="none" xmlns="http://www.w3.org/2000/svg">
<g opacity="0.6">
<path fill-rule="evenodd" clip-rule="evenodd" d="M0 21.2834C0 22.8015 1.23295 24 2.70455 24H18.2955C19.767 24 21 22.8015 21 21.2434V9.13858C21 8.33957 20.642 7.58052 20.0057 7.06117L12.2102 0.629214C11.2159 -0.209738 9.78409 -0.209738 8.78977 0.629214L0.994318 7.10112C0.357955 7.62047 0 8.37953 0 9.17853V21.2834ZM9.78409 1.86767C9.98295 1.70787 10.2614 1.62797 10.5 1.62797C10.7386 1.62797 11.017 1.70787 11.2159 1.86767L19.0114 8.33958C19.25 8.53933 19.4091 8.85893 19.4091 9.17853V21.2834C19.4091 21.9226 18.892 22.402 18.2955 22.402H2.70455C2.06818 22.402 1.59091 21.8826 1.59091 21.2834V9.17853C1.59091 8.85893 1.75 8.53933 1.98864 8.33958L9.78409 1.86767Z" fill="white"/>
<path opacity="0.5" d="M15.2725 20.4847H5.7271C5.2896 20.4847 4.93164 20.1252 4.93164 19.6857C4.93164 19.2463 5.2896 18.8867 5.7271 18.8867H15.2725C15.71 18.8867 16.068 19.2463 16.068 19.6857C16.068 20.1252 15.71 20.4847 15.2725 20.4847Z" fill="white"/>
</g>
</svg>
