<svg width="14" height="16" viewBox="0 0 14 16" fill="none" xmlns="http://www.w3.org/2000/svg">
<path fill-rule="evenodd" clip-rule="evenodd" d="M13.3 2.66667H11.13C10.7951 1.11572 9.36257 0.00199886 7.7 0H6.3C4.63743 0.00199886 3.2049 1.11572 2.87 2.66667H0.7C0.313401 2.66667 0 2.96514 0 3.33333C0 3.70152 0.313401 4 0.7 4H1.4V12.6667C1.40231 14.5067 2.96796 15.9978 4.9 16H9.1C11.032 15.9978 12.5977 14.5067 12.6 12.6667V4H13.3C13.6866 4 14 3.70152 14 3.33333C14 2.96514 13.6866 2.66667 13.3 2.66667ZM6.3 1.33333H7.7C8.58969 1.33437 9.38255 1.8682 9.6803 2.66667H4.3197C4.61745 1.8682 5.41031 1.33437 6.3 1.33333ZM9.1 14.6667C10.2598 14.6667 11.2 13.7712 11.2 12.6667V4H2.8V12.6667C2.8 13.7712 3.7402 14.6667 4.9 14.6667H9.1Z" fill="#004659"/>
<path d="M5.60039 12.0003C5.98699 12.0003 6.30039 11.7018 6.30039 11.3337V7.33366C6.30039 6.96547 5.98699 6.66699 5.60039 6.66699C5.21379 6.66699 4.90039 6.96547 4.90039 7.33366V11.3337C4.90039 11.7018 5.21379 12.0003 5.60039 12.0003Z" fill="#004659"/>
<path d="M8.39922 12.0003C8.78582 12.0003 9.09922 11.7018 9.09922 11.3337V7.33366C9.09922 6.96547 8.78582 6.66699 8.39922 6.66699C8.01262 6.66699 7.69922 6.96547 7.69922 7.33366V11.3337C7.69922 11.7018 8.01262 12.0003 8.39922 12.0003Z" fill="#004659"/>
</svg>
