<svg width="17" height="17" viewBox="0 0 17 17" fill="none" xmlns="http://www.w3.org/2000/svg">
<path fill-rule="evenodd" clip-rule="evenodd" d="M16.2467 0.753638C15.2404 -0.251213 13.6103 -0.251213 12.604 0.753638L1.04152 12.3163C0.372724 12.9814 -0.00229492 13.8863 2.12325e-05 14.8295V16.289C2.12325e-05 16.6817 0.318312 17 0.710944 17H2.17047C3.11356 17.0026 4.01852 16.6278 4.68358 15.9592L16.2467 4.39577C17.2511 3.38946 17.2511 1.75995 16.2467 0.753638ZM3.67833 14.9539C3.27738 15.3522 2.73562 15.5765 2.17047 15.5781H1.42187V14.8295C1.42041 14.2636 1.64543 13.7206 2.04677 13.3216L10.8217 4.54649L12.4568 6.18164L3.67833 14.9539ZM13.4592 5.17282L15.2408 3.3905L15.2379 3.39406C15.53 3.1026 15.6444 2.67745 15.5381 2.27877C15.4317 1.88008 15.1207 1.56842 14.7223 1.46119C14.3238 1.35396 13.8985 1.46745 13.6064 1.7589L11.8241 3.54122L13.4592 5.17282Z" fill="#004659"/>
</svg>
