<svg width="24" height="24" viewBox="0 0 24 24" fill="none" xmlns="http://www.w3.org/2000/svg">
<g opacity="0.6">
<path fill-rule="evenodd" clip-rule="evenodd" d="M6.85742 12.0003C6.85742 14.836 9.16457 17.1431 12.0004 17.1431C14.836 17.1431 17.1431 14.836 17.1431 12.0003C17.1431 9.16452 14.836 6.85742 12.0004 6.85742C9.16457 6.85742 6.85742 9.16452 6.85742 12.0003ZM8.40029 12.0003C8.40029 10.0152 10.0151 8.40026 12.0004 8.40026C13.9855 8.40026 15.6003 10.0152 15.6003 12.0003C15.6003 13.9853 13.9855 15.6003 12.0004 15.6003C10.0151 15.6003 8.40029 13.9853 8.40029 12.0003Z" fill="white"/>
<path fill-rule="evenodd" clip-rule="evenodd" d="M10.2572 24H13.7424C14.5806 24 15.3214 23.432 15.5015 22.65L15.9438 20.7761C16.6625 20.4849 17.3478 20.105 17.9911 19.641L19.9045 20.218C20.7218 20.46 21.6125 20.129 22.0179 19.437L23.7657 16.552C24.1774 15.8511 24.036 14.9769 23.424 14.4271C23.4224 14.426 23.421 14.4249 23.4198 14.4239C23.4187 14.4229 23.4177 14.422 23.4167 14.421L21.9436 13.129C21.9875 12.748 22.0096 12.369 22.0096 12C22.0096 11.631 21.9875 11.252 21.9436 10.871L23.424 9.57202C24.036 9.02197 24.1765 8.14801 23.7605 7.43793L22.0232 4.57104C21.6125 3.87103 20.724 3.54108 19.9024 3.78204L17.9923 4.35791C17.3489 3.89392 16.6636 3.51398 15.9447 3.22302L15.5036 1.35095C15.3214 0.567993 14.5806 0 13.7424 0H10.2572C9.41899 0 8.67822 0.567993 8.49691 1.34802L8.05487 3.22192C7.33597 3.51306 6.65065 3.89301 6.00734 4.35699L4.09411 3.78003C3.27986 3.54108 2.38713 3.86993 1.98173 4.56207L0.233891 7.44708C-0.177841 8.14801 -0.0364398 9.02197 0.582884 9.57806L2.05503 10.871C2.01109 11.252 1.98903 11.6299 1.98903 12C1.98903 12.3701 2.01109 12.748 2.05598 13.129L0.575593 14.428C-0.0364398 14.978 -0.176881 15.852 0.239263 16.5621L1.97636 19.429C2.38713 20.129 3.27775 20.4609 4.09718 20.218L6.00734 19.6421C6.65065 20.1061 7.33597 20.486 8.05487 20.777L8.49595 22.649C8.67822 23.432 9.41899 24 10.2572 24ZM6.66753 18.23C6.52498 18.1179 6.34789 18.059 6.16773 18.059C6.08811 18.059 6.00849 18.0699 5.93098 18.0939L3.6277 18.7881C3.51777 18.8199 3.39824 18.783 3.34279 18.6879L1.6055 15.821C1.54794 15.722 1.56674 15.598 1.64636 15.527L3.41934 13.9709C3.61101 13.8019 3.70329 13.554 3.66454 13.3079C3.59528 12.865 3.56074 12.425 3.56074 12C3.56074 11.575 3.59528 11.135 3.66454 10.6921C3.70329 10.446 3.61101 10.197 3.41934 10.0291L1.65269 8.47998C1.56578 8.40198 1.54679 8.27802 1.59917 8.18793L3.34701 5.30402C3.39728 5.21796 3.51681 5.18005 3.62463 5.21191L5.93098 5.90698C6.18232 5.98297 6.46109 5.93207 6.66753 5.77002C7.38624 5.20496 8.17209 4.76898 9.00208 4.47693C9.25246 4.38794 9.43799 4.18597 9.4965 3.93805L10.031 1.67596C10.054 1.57397 10.1494 1.5 10.2572 1.5H13.7424C13.8502 1.5 13.9455 1.57397 13.9718 1.67596L14.5052 3.93604C14.5637 4.18396 14.7492 4.38702 14.9996 4.47491C15.8306 4.76697 16.6155 5.20294 17.3353 5.76801C17.5418 5.93005 17.8182 5.98206 18.0719 5.90497L20.375 5.211C20.4839 5.17804 20.6035 5.21594 20.6599 5.31097L22.3972 8.17804C22.4549 8.27692 22.4359 8.40106 22.3563 8.47192L20.5835 10.028C20.3917 10.197 20.2996 10.4451 20.3383 10.691C20.4074 11.1339 20.4421 11.5739 20.4421 11.9991C20.4421 12.4241 20.4074 12.8641 20.3383 13.307C20.2996 13.5529 20.3917 13.8019 20.5835 13.97L22.3523 15.522C22.4359 15.6 22.4549 15.722 22.4025 15.811L20.6547 18.696C20.6044 18.782 20.487 18.821 20.3771 18.7881L18.0709 18.093C17.8161 18.0159 17.5397 18.0679 17.3342 18.23C16.6143 18.795 15.8285 19.231 14.9987 19.5231C14.7483 19.611 14.5628 19.814 14.504 20.062L13.9697 22.324C13.9467 22.426 13.8513 22.5 13.7433 22.5H10.2584C10.1504 22.5 10.055 22.426 10.031 22.322L9.49765 20.062C9.43895 19.814 9.25342 19.611 9.00304 19.5231C8.17209 19.231 7.38739 18.795 6.66753 18.23Z" fill="white"/>
</g>
</svg>
