<svg width="23" height="21" viewBox="0 0 23 21" fill="none" xmlns="http://www.w3.org/2000/svg">
<g opacity="0.6">
<path fill-rule="evenodd" clip-rule="evenodd" d="M3.83094 21H19.1691C21.2832 20.9961 22.996 19.3201 23 17.2515V8.2565C23 6.18513 21.286 4.50486 19.1691 4.50098H3.83094C1.71401 4.50486 -3.71189e-06 6.18513 0 8.2565V17.2515C0.00395535 19.3201 1.71681 20.9961 3.83094 21ZM1.53094 8.2565C1.53094 7.01358 2.56068 6.006 3.83094 6.006H19.1691C20.4393 6.006 21.4691 7.01358 21.4691 8.2565V17.2515C21.4691 18.4944 20.4393 19.502 19.1691 19.502H3.83094C2.56068 19.502 1.53094 18.4944 1.53094 17.2515V8.2565Z" fill="white"/>
<path d="M15.331 3.74849C15.1271 3.74849 14.9314 3.66921 14.7872 3.52809C14.643 3.38696 14.562 3.19556 14.562 2.99598V2.2505C14.562 1.83763 14.222 1.50185 13.8001 1.49799H9.20009C8.77535 1.49799 8.43103 1.8349 8.43103 2.2505V2.99598C8.45928 3.2809 8.31987 3.55683 8.07136 3.70787C7.82285 3.85892 7.50827 3.85892 7.25976 3.70787C7.01125 3.55683 6.87184 3.2809 6.90009 2.99598V2.2505C6.90009 1.00758 7.92983 0 9.20009 0H13.8001C15.0703 0 16.1001 1.00758 16.1001 2.2505V2.99598C16.1001 3.19556 16.0191 3.38696 15.8748 3.52809C15.7306 3.66921 15.535 3.74849 15.331 3.74849Z" fill="white"/>
<path opacity="0.5" d="M11.5006 13.0735C10.7568 13.0667 10.0225 12.9086 9.3444 12.6094L4.31315 10.4362C3.91619 10.2673 3.73438 9.81544 3.90705 9.42703C4.07973 9.03862 4.54151 8.86071 4.93846 9.02967L9.96971 11.2169C10.9606 11.6469 12.091 11.6469 13.0819 11.2169L18.1131 9.02967C18.3699 8.92038 18.6668 8.95343 18.8919 9.11637C19.1171 9.27932 19.2362 9.54741 19.2046 9.81966C19.1729 10.0919 18.9952 10.3269 18.7385 10.4362L13.6569 12.6094C12.9788 12.9086 12.2445 13.0667 11.5006 13.0735Z" fill="white"/>
</g>
</svg>
