<?xml version="1.0" encoding="UTF-8"?><svg id="Layer_1" xmlns="http://www.w3.org/2000/svg" viewBox="0 0 511.98 448"><defs><style>.cls-1{fill:#fff;}</style></defs><path class="cls-1" d="M160,384H96c-17.67,0-32-14.33-32-32V96c0-17.67,14.33-32,32-32h64c17.67,0,32-14.33,32-32S177.7,0,160,0H96C42.98,0,0,42.98,0,96V352c0,53.02,42.98,96,96,96h64c17.67,0,32-14.33,32-32s-14.3-32-32-32ZM502.6,201.4L374.6,73.4c-12.51-12.51-32.76-12.49-45.25,0-12.5,12.5-12.5,32.75,0,45.25l73.45,73.35H192c-17.7,0-32,14.3-32,32s14.31,32,32,32h210.8l-73.38,73.38c-12.5,12.5-12.5,32.75,0,45.25s32.75,12.5,45.25,0l128-128c12.43-12.53,12.43-32.73-.07-45.23Z"/></svg>