<svg width="17" height="17" viewBox="0 0 17 17" fill="none" xmlns="http://www.w3.org/2000/svg">
<path opacity="0.5" d="M8.50392 16.1239L8.82285 15.8049C9.03399 15.5938 9.03399 15.2524 8.82285 15.0413L2.89318 9.13854H15.4668C15.7633 9.13854 16.0059 8.89594 16.0059 8.59947V8.15026C16.0059 7.85379 15.7633 7.6112 15.4668 7.6112H2.89318L8.81838 1.70846C9.02952 1.49736 9.02952 1.15593 8.81838 0.944788L8.49945 0.625861C8.28831 0.414721 7.94688 0.414721 7.73578 0.625861L0.346148 7.99303C0.135008 8.20417 0.135008 8.54556 0.346148 8.7567L7.74025 16.1239C7.9514 16.335 8.29278 16.335 8.50392 16.1239Z" fill="white"/>
</svg>
