<svg width="65" height="76" viewBox="0 0 65 76" fill="none" xmlns="http://www.w3.org/2000/svg">
<path fill-rule="evenodd" clip-rule="evenodd" d="M64.0604 25.5C63.8471 25.5 63.6325 25.4273 63.4568 25.2786C61.3302 23.4827 60.1706 20.6433 60.4301 17.8678C60.5096 17.0213 60.7103 16.213 60.9049 15.4317C61.145 14.4672 61.3715 13.5567 61.3552 12.6575C61.3327 11.4328 60.8661 10.2338 60.372 8.9646L60.3307 8.85863C59.7521 7.36932 59.2373 5.90321 59.2955 4.3374C59.3562 2.70387 60.2281 0.748013 62.0382 0.0613638C62.5236 -0.122997 63.064 0.12219 63.2479 0.607548C63.4311 1.09291 63.1872 1.63595 62.7025 1.81969C61.7023 2.20032 61.207 3.42814 61.1707 4.40764C61.1256 5.61476 61.5553 6.82878 62.0789 8.17511L62.1202 8.28109C62.6524 9.64875 63.2028 11.0628 63.231 12.623C63.2523 13.7712 62.9846 14.8466 62.7256 15.8869C62.5398 16.6331 62.3641 17.3386 62.2984 18.0428C62.0951 20.2144 63.0027 22.4355 64.6652 23.8401C65.0618 24.175 65.1124 24.7682 64.7784 25.1658C64.5933 25.3859 64.3274 25.5 64.0604 25.5Z" fill="#F4CBA6"/>
<path d="M22.1406 61.25L25.6313 73.75" stroke="#285069"/>
<path d="M31.1172 59.75L34.6079 72.25" stroke="#285069"/>
<path fill-rule="evenodd" clip-rule="evenodd" d="M56.7991 12C56.7991 12 59.7911 10.5 63.7805 13.5C63.7805 13.5 59.0431 16.75 55.709 14.5595L56.7991 12Z" fill="#285069"/>
<path fill-rule="evenodd" clip-rule="evenodd" d="M-19 71.0004L-13.5146 76.0004L4.43768 55.5004L-1.54043 51.6309L-19 71.0004Z" fill="#194A4E"/>
<path fill-rule="evenodd" clip-rule="evenodd" d="M-1.54688 51.5L35.8537 10C35.8537 10 55.8056 13.468 57.2573 19.2805C57.9345 21.9915 58.294 24.8285 58.294 27.75C58.294 46.942 42.7773 62.5 23.6362 62.5C13.7195 62.5 4.77581 58.324 -1.54139 51.6305" fill="#F4CBA6"/>
<path fill-rule="evenodd" clip-rule="evenodd" d="M34.3574 15.75C34.3574 9.2605 39.604 4 46.0763 4C52.5485 4 57.7951 9.2605 57.7951 15.75C57.7951 22.2395 52.5485 27.5 46.0763 27.5C39.604 27.5 34.3574 22.2395 34.3574 15.75Z" fill="#17887C"/>
<path fill-rule="evenodd" clip-rule="evenodd" d="M51.8125 12C51.8125 11.1715 52.4822 10.5 53.3085 10.5C54.1348 10.5 54.8045 11.1715 54.8045 12C54.8045 12.8285 54.1348 13.5 53.3085 13.5C52.4822 13.5 51.8125 12.8285 51.8125 12Z" fill="#17323F"/>
<path fill-rule="evenodd" clip-rule="evenodd" d="M57.7545 19.281L29.6203 17.25L27.127 19.75L56.05 34.75L57.7545 19.281Z" fill="#F4CBA6"/>
<path fill-rule="evenodd" clip-rule="evenodd" d="M-4.0918 54.461H3.48555C21.8861 54.461 38.1858 42.5595 43.8328 25L26.8779 20L-4.0918 54.461Z" fill="#285069"/>
<path fill-rule="evenodd" clip-rule="evenodd" d="M57.5456 19.2671H27.502L37.5178 7.72559L57.5456 19.2671Z" fill="#17887C"/>
<path fill-rule="evenodd" clip-rule="evenodd" d="M57.795 14.8564V19.2499H56.3613L57.795 14.8564Z" fill="#17887C"/>
<mask id="mask0_0_6388" style="mask-type:alpha" maskUnits="userSpaceOnUse" x="-5" y="20" width="49" height="35">
<path fill-rule="evenodd" clip-rule="evenodd" d="M-4.0918 54.4605H3.48605C21.8866 54.4605 38.1858 42.559 43.8333 25L26.8783 20" fill="white"/>
</mask>
<g mask="url(#mask0_0_6388)">
<path d="M-0.298828 56.25L20.6455 33.75" stroke="white"/>
</g>
<mask id="mask1_0_6388" style="mask-type:alpha" maskUnits="userSpaceOnUse" x="-5" y="20" width="49" height="35">
<path fill-rule="evenodd" clip-rule="evenodd" d="M-4.0918 54.4605H3.48605C21.8866 54.4605 38.1858 42.559 43.8333 25L26.8783 20" fill="white"/>
</mask>
<g mask="url(#mask1_0_6388)">
<path d="M5.18555 57.25L26.1299 34.75" stroke="white"/>
</g>
<mask id="mask2_0_6388" style="mask-type:alpha" maskUnits="userSpaceOnUse" x="-5" y="20" width="49" height="35">
<path fill-rule="evenodd" clip-rule="evenodd" d="M-4.0918 54.4605H3.48605C21.8866 54.4605 38.1858 42.559 43.8333 25L26.8783 20" fill="white"/>
</mask>
<g mask="url(#mask2_0_6388)">
<path d="M10.6719 58.25L31.6162 35.75" stroke="white"/>
</g>
</svg>
