<svg width="747" height="1024" viewBox="0 0 747 1024" fill="none" xmlns="http://www.w3.org/2000/svg">
<path fill-rule="evenodd" clip-rule="evenodd" d="M747 335.805C729.707 346.723 709.951 353.736 689.629 356.171C711.603 360.852 731.604 374.174 744.357 392.622C725.66 390.198 707.394 384.508 690.638 375.889C704.699 393.669 712.24 416.466 711.548 439.099C711.583 437.953 704.984 433.187 700.151 429.697L700.151 429.696L700.15 429.695C697.88 428.056 696.001 426.699 695.382 426.13C689.951 421.143 684.874 415.773 680.191 410.082C670.825 398.699 663.029 386.024 657.139 372.521C656.768 371.671 656.262 370.639 655.699 369.491C653.385 364.766 650.113 358.088 651.363 354.177C652.5 350.618 657.242 348.505 660.947 346.855L660.948 346.854L660.948 346.854L660.95 346.854L660.951 346.853L660.957 346.851L660.961 346.849C661.782 346.483 662.553 346.139 663.221 345.808C675.519 339.708 688.614 334.992 702.189 332.722C717.122 330.225 732.631 330.78 747 335.805ZM700.626 160.826C687.8 180.224 679.36 202.514 676.118 225.551C691.039 216.815 702.921 203.793 711.734 189.015C719.743 175.582 725.279 160.758 729.029 145.605C729.233 144.777 729.504 143.851 729.792 142.863L729.792 142.863C731.083 138.434 732.737 132.767 730.486 129.155C728.013 125.185 719.816 123.089 714.018 121.606L714.017 121.606L714.017 121.606L714.015 121.606L714.014 121.605C712.605 121.245 711.338 120.921 710.329 120.615C694.286 115.749 677.561 113.143 660.802 112.853C652.423 112.708 644.033 113.142 635.715 114.163C634.767 114.28 632.209 114.905 629.12 115.661L629.12 115.661C622.54 117.27 613.551 119.467 612.582 118.591C631.705 135.899 657.022 146.196 682.782 147.143C662.988 155.293 644.624 166.913 628.779 181.318C654.155 183.891 680.413 176.403 700.626 160.826ZM618.774 554.626C608.079 572.029 593.469 586.996 576.349 598.089C598.064 592.679 621.796 595.913 641.286 606.937C623.492 612.943 604.654 615.821 585.885 615.4C606.254 625.249 622.984 642.47 632.274 663.15C631.804 662.102 623.808 660.701 617.955 659.675C615.207 659.193 612.931 658.794 612.129 658.554C605.085 656.443 598.19 653.831 591.507 650.759C578.141 644.614 565.615 636.615 554.432 627.039C553.728 626.438 552.825 625.73 551.82 624.944L551.817 624.942C547.677 621.702 541.825 617.123 541.231 613.053C540.691 609.352 544.009 605.373 546.602 602.264L546.602 602.263L546.604 602.262C547.182 601.568 547.724 600.918 548.179 600.325C556.513 589.447 566.168 579.466 577.322 571.477C589.593 562.688 603.716 556.395 618.774 554.626ZM325 89.7207C332.538 108.707 335.778 129.384 334.409 149.766C343.085 129.085 359.896 111.944 380.408 102.864C374.56 120.75 365.578 137.607 353.995 152.438C374.093 141.951 397.917 138.789 420.056 143.671C418.934 143.424 413.02 149.012 408.691 153.103L408.691 153.104L408.688 153.106C406.657 155.025 404.975 156.615 404.302 157.116C398.39 161.515 392.165 165.498 385.7 169.034C372.766 176.105 358.851 181.396 344.476 184.666C343.572 184.872 342.463 185.176 341.231 185.514L341.23 185.514L341.227 185.515L341.226 185.515L341.225 185.515C336.149 186.908 328.975 188.875 325.358 186.922C322.068 185.147 320.868 180.104 319.93 176.163C319.721 175.284 319.524 174.46 319.321 173.739C315.598 160.547 313.384 146.828 313.666 133.094C313.975 117.985 317.395 102.879 325 89.7207ZM222.086 24.6061C229.624 43.5925 232.864 64.2697 231.495 84.6508C240.171 63.9708 256.982 46.8298 277.494 37.7498C271.646 55.6356 262.665 72.492 251.082 87.3236C271.179 76.8365 295.003 73.6742 317.142 78.5567C316.021 78.3094 310.107 83.8976 305.778 87.9883L305.778 87.9885L305.777 87.9894L305.773 87.9929C303.742 89.9116 302.061 91.5001 301.388 92.0012C295.476 96.4007 289.251 100.383 282.786 103.919C269.852 110.99 255.937 116.281 241.562 119.551C240.657 119.757 239.546 120.062 238.311 120.401C233.235 121.793 226.061 123.761 222.445 121.808C219.154 120.032 217.954 114.989 217.016 111.048C216.807 110.169 216.611 109.345 216.407 108.624C212.685 95.432 210.47 81.7133 210.752 67.9795C211.062 52.8708 214.481 37.764 222.086 24.6061ZM186.983 524.289C203.026 513.983 216.716 500.078 226.738 483.91C212.627 485.554 199.394 491.4 187.895 499.565C177.442 506.987 168.396 516.259 160.586 526.365C160.159 526.918 159.65 527.523 159.107 528.168C156.677 531.056 153.569 534.752 154.075 538.19C154.631 541.97 160.115 546.225 163.994 549.235L163.995 549.235L164.003 549.241C164.942 549.97 165.787 550.626 166.445 551.184C176.925 560.081 188.662 567.511 201.188 573.221C207.45 576.075 213.911 578.5 220.511 580.461C221.263 580.685 223.397 581.056 225.974 581.504C231.458 582.457 238.948 583.759 239.388 584.732C230.683 565.519 215.006 549.521 195.919 540.371C213.507 540.762 231.159 538.088 247.833 532.507C229.57 522.266 207.331 519.262 186.983 524.289ZM123.124 227.652C113.102 243.82 99.4118 257.725 83.3694 268.031C103.718 263.005 125.956 266.009 144.219 276.249C127.545 281.83 109.893 284.504 92.3048 284.113C111.392 293.263 127.069 309.262 135.775 328.475C135.334 327.501 127.844 326.199 122.36 325.246C119.783 324.798 117.649 324.427 116.897 324.204C110.297 322.243 103.836 319.817 97.5739 316.963C85.0483 311.253 73.3107 303.823 62.8308 294.926C62.1738 294.368 61.3295 293.713 60.3908 292.985L60.3809 292.977L60.3804 292.977C56.501 289.967 51.0172 285.713 50.4615 281.932C49.9553 278.494 53.0635 274.799 55.493 271.91C56.0359 271.265 56.5448 270.66 56.972 270.107C64.7821 260.002 73.8281 250.729 84.2812 243.307C95.7797 235.142 109.013 229.296 123.124 227.652ZM262.278 300.199C252.706 316.697 246.855 335.354 245.289 354.38C257.074 346.519 266.174 335.289 272.683 322.767C278.599 311.383 282.426 298.979 284.779 286.387C284.908 285.699 285.085 284.927 285.274 284.103C286.122 280.415 287.206 275.696 285.198 272.844C282.989 269.708 276.193 268.379 271.383 267.438L271.382 267.438C270.212 267.209 269.159 267.003 268.319 266.799C254.976 263.572 241.183 262.227 227.47 262.781C220.615 263.058 213.777 263.81 207.026 265.04C206.256 265.18 204.191 265.815 201.698 266.581C196.395 268.209 189.158 270.432 188.325 269.76C204.77 283.035 225.948 290.274 247.049 289.833C231.252 297.445 216.789 307.833 204.513 320.381C225.377 321.291 246.488 313.915 262.278 300.199ZM364.049 333.467C346.639 344.118 326.838 350.823 306.547 352.934C328.371 357.973 348.089 371.628 360.502 390.3C341.908 387.574 323.796 381.585 307.235 372.688C320.963 390.712 328.112 413.653 327.058 436.299C327.112 435.151 320.611 430.273 315.851 426.702L315.85 426.701L315.85 426.701C313.615 425.024 311.764 423.635 311.156 423.056C305.824 417.977 300.851 412.52 296.275 406.749C287.124 395.204 279.558 382.39 273.904 368.779C273.548 367.922 273.06 366.879 272.517 365.719C270.287 360.953 267.135 354.218 268.444 350.323C269.634 346.78 274.393 344.741 278.113 343.148C278.943 342.792 279.721 342.459 280.396 342.136C292.749 336.227 305.876 331.717 319.44 329.662C334.363 327.402 349.811 328.207 364.049 333.467ZM78.0186 623.091C56.2836 627.668 35.595 637.167 17.9393 650.678C33.9467 654.775 50.7635 653.907 66.6686 649.774C81.1264 646.018 94.8335 639.648 107.546 631.85C108.241 631.424 109.045 630.975 109.903 630.497C113.752 628.351 118.678 625.603 119.57 621.626C120.55 617.256 116.38 610.307 113.43 605.391L113.427 605.387L113.427 605.385C112.711 604.193 112.067 603.119 111.586 602.232C103.936 588.113 94.3075 575.073 83.1016 563.589C77.5001 557.847 71.5015 552.491 65.1588 547.585C64.4357 547.026 62.2766 545.729 59.6691 544.164C54.1142 540.828 46.5248 536.271 46.4539 535.021C47.8538 559.692 58.1697 583.757 75.0566 601.751C56.1262 593.972 35.8423 589.521 15.402 588.661C30.9384 607.505 53.8221 620.088 78.0186 623.091ZM422.444 618.104C419.782 638.331 421.69 659.148 427.987 678.553C436.402 665.923 440.771 651.084 442.043 636.044C443.2 622.372 441.87 608.558 439.003 595.171C438.846 594.439 438.703 593.604 438.55 592.713C437.867 588.726 436.994 583.625 433.83 581.645C430.352 579.468 423.079 580.972 417.934 582.036L417.929 582.037L417.922 582.039C416.676 582.296 415.555 582.528 414.643 582.675C400.116 585.018 385.918 589.403 372.585 595.628C365.918 598.739 359.465 602.311 353.295 606.319C352.592 606.776 350.816 608.252 348.67 610.036L348.668 610.038C344.095 613.84 337.847 619.034 336.745 618.716C358.486 624.994 382.419 623.361 403.107 614.19C390.623 628.235 380.601 644.464 373.635 661.918C394.646 654.176 412.483 638.163 422.444 618.104ZM500.076 97.4225C495.492 117.368 486.42 136.26 473.735 152.283C492.586 140.175 516.105 135.619 538.087 139.815C523.142 151.229 506.209 160.011 488.291 165.64C510.732 168.44 532.076 179.403 547.473 196.036C546.693 195.194 538.668 196.433 532.794 197.34L532.794 197.34C530.038 197.766 527.755 198.118 526.918 198.148C519.57 198.408 512.205 198.146 504.892 197.378C490.268 195.842 475.849 192.279 462.197 186.787C461.337 186.441 460.252 186.059 459.046 185.635C454.091 183.891 447.089 181.428 445.229 177.76C443.537 174.421 445.414 169.578 446.88 165.796C447.207 164.952 447.513 164.162 447.755 163.452C452.184 150.456 458.149 137.886 466.171 126.725C474.997 114.446 486.372 103.938 500.076 97.4225ZM604.235 495.812C607.095 475.636 614.542 456.116 625.86 439.128C608.023 452.769 584.855 459.328 562.465 457.074C576.446 444.459 592.65 434.282 610.114 427.145C587.385 426.315 565.047 417.296 548.173 402.139C549.028 402.907 556.954 400.983 562.759 399.574L562.76 399.574C565.488 398.912 567.748 398.364 568.585 398.262C575.925 397.367 583.328 396.987 590.72 397.114C605.508 397.368 620.265 399.65 634.421 403.912C635.312 404.18 636.432 404.464 637.677 404.78C642.793 406.079 650.024 407.914 652.206 411.391C654.193 414.555 652.733 419.519 651.593 423.397L651.593 423.398L651.592 423.4C651.338 424.263 651.1 425.073 650.92 425.797C647.612 439.068 642.727 452.05 635.659 463.814C627.884 476.757 617.399 488.162 604.235 495.812ZM529.247 305.397C517.929 322.386 510.482 341.906 507.622 362.082C520.787 354.432 531.271 343.027 539.046 330.084C546.114 318.319 550.999 305.338 554.307 292.067C554.488 291.342 554.726 290.532 554.98 289.667C556.12 285.789 557.58 280.824 555.593 277.661C553.411 274.184 546.18 272.349 541.064 271.05L541.064 271.05C539.819 270.734 538.699 270.45 537.808 270.182C523.652 265.92 508.895 263.638 494.108 263.384C486.715 263.257 479.312 263.636 471.972 264.532C471.135 264.634 468.875 265.182 466.147 265.844L466.147 265.844C460.341 267.253 452.415 269.176 451.56 268.409C468.434 283.566 490.772 292.584 513.501 293.414C496.037 300.552 479.833 310.728 465.852 323.344C488.242 325.598 511.41 319.039 529.247 305.397ZM374.55 81.3188C366.229 65.6044 355.623 51.1073 343.172 38.4291C338.085 33.2498 310.409 9.90211 308.221 24.3649C306.234 37.5025 321.154 54.7957 330.246 62.2563C342.816 72.5712 358.573 78.3807 374.55 81.3188ZM606.935 314.4C615.393 330.002 621.561 346.829 625.184 364.183C610.597 356.912 597.028 346.955 587.794 333.581C581.115 323.907 571.57 303.201 577.166 291.19C583.329 277.967 603.48 308.025 606.935 314.4ZM505.468 558.826C497.146 543.112 486.54 528.615 474.089 515.937C469.002 510.757 441.326 487.41 439.139 501.872C437.151 515.01 452.072 532.303 461.164 539.764C473.733 550.079 489.49 555.888 505.468 558.826ZM506.293 394.809C518.745 407.488 529.351 421.985 537.672 437.699C521.695 434.761 505.938 428.952 493.368 418.637C484.276 411.176 469.356 393.883 471.343 380.745C473.53 366.282 501.207 389.63 506.293 394.809ZM737.899 652.951C722.528 644.269 705.88 637.808 688.648 633.838C681.609 632.217 645.877 627.415 651.733 640.614C657.052 652.602 678.82 659.11 690.446 660.513C706.52 662.452 722.881 658.956 737.899 652.951ZM289.535 508.752C303.126 520.142 315.061 533.517 324.843 548.324C308.687 546.952 292.471 542.707 278.99 533.677C269.238 527.146 252.748 511.41 253.456 498.165C254.235 483.584 283.982 504.099 289.535 508.752ZM218.429 654.048C211.457 637.694 202.118 622.367 190.799 608.699C186.175 603.116 160.619 577.554 157.264 591.791C154.215 604.723 167.608 623.195 176.02 631.384C187.65 642.704 202.813 649.798 218.429 654.048ZM309.86 458.787C326.656 453.242 344.262 450.137 361.948 449.602C352.288 462.553 340.164 474.051 325.425 480.736C314.763 485.572 292.762 491.297 281.915 483.774C269.976 475.493 302.998 461.052 309.86 458.787ZM354.948 293.467C347.976 277.113 338.636 261.786 327.317 248.118C322.693 242.535 297.137 216.973 293.782 231.21C290.734 244.142 304.126 262.614 312.538 270.802C324.168 282.123 339.332 289.217 354.948 293.467ZM173.63 229.677C189.503 221.711 206.539 216.057 224.03 212.949C216.33 227.248 205.968 240.461 192.304 249.262C182.421 255.628 161.402 264.531 149.527 258.621C136.453 252.115 167.145 232.931 173.63 229.677ZM91.0122 360.682C80.5658 346.443 68.0424 333.728 53.9591 323.06C48.2055 318.702 17.5936 299.738 17.5027 314.251C17.4212 327.433 34.5967 342.277 44.6227 348.302C58.4852 356.631 74.8453 360.081 91.0122 360.682ZM41.3365 197.468C29.231 210.401 15.2585 221.549 0 230.452C2.33893 214.337 7.52771 198.338 17.2897 185.372C24.35 175.993 40.9362 160.421 54.0115 161.941C68.407 163.613 46.2817 192.185 41.3365 197.468ZM0 884.4C15.2585 875.497 29.231 864.348 41.3365 851.416C46.2817 846.132 68.407 817.561 54.0115 815.888C40.9362 814.369 24.35 829.941 17.2897 839.319C7.52771 852.285 2.33893 868.284 0 884.4ZM41.3365 1235.1C29.231 1248.03 15.2585 1259.18 0 1268.09C2.33893 1251.97 7.52771 1235.97 17.2897 1223.01C24.35 1213.63 40.9362 1198.05 54.0115 1199.57C68.407 1201.25 46.2817 1229.82 41.3365 1235.1ZM136.518 191.595C118.905 189.701 101.017 190.369 83.595 193.574C76.4778 194.883 41.7377 204.698 52.4362 214.561C62.1542 223.521 84.7626 220.853 96.0021 217.512C111.542 212.892 125.151 203.135 136.518 191.595ZM162.627 328.789C155.891 312.381 151.562 294.999 149.82 277.363C163.546 286.138 175.972 297.474 183.721 311.75C189.324 322.075 196.595 343.67 189.741 355.017C182.195 367.51 165.38 335.491 162.627 328.789ZM46.2062 119.127C56.2215 133.693 68.36 146.799 82.1195 157.9C87.7407 162.436 117.777 182.342 118.306 167.818C118.786 154.626 102.061 139.25 92.2173 132.918C78.6083 124.162 62.3542 120.216 46.2062 119.127ZM450.921 28.842C465.915 28.4587 481.247 31.1938 494.266 38.6478C477.331 51.4546 453.797 50.0761 432.945 46.1113C452.408 57.8247 465.422 79.6194 466.511 102.324C444.732 92.4539 426.601 74.7413 416.214 53.1887C415.652 52.0219 415.084 50.9022 414.54 49.8294L414.539 49.8277L414.537 49.8231L414.536 49.8214C410.394 41.6559 407.63 36.2088 419.209 33.3893C429.583 30.863 440.234 29.1156 450.921 28.842ZM451.56 217.888C438.541 210.434 423.209 207.699 408.215 208.082C397.528 208.356 386.878 210.103 376.503 212.63C364.925 215.449 367.688 220.896 371.83 229.062L371.831 229.063L371.834 229.069C372.378 230.142 372.946 231.262 373.509 232.429C383.895 253.982 402.026 271.694 423.805 281.564C422.717 258.86 409.702 237.065 390.239 225.352C411.092 229.317 434.625 230.695 451.56 217.888ZM232.771 453.102C217.774 453.061 202.527 449.909 189.725 442.129C207.013 429.87 230.496 431.905 251.225 436.434C232.104 424.237 219.712 402.196 219.266 379.586C240.755 390.016 258.375 408.142 268.147 429.868C268.677 431.048 269.215 432.181 269.73 433.266C273.638 441.501 276.246 446.995 264.595 449.473C254.154 451.694 243.46 453.132 232.771 453.102ZM373.15 371.271C387.992 373.308 403.213 370.105 416.958 364.139C426.755 359.887 435.967 354.281 444.633 348.057C454.304 341.111 449.711 337.097 442.826 331.079C441.919 330.287 440.973 329.46 440.015 328.587C422.349 312.498 398.944 302.867 375.087 301.869C384.57 322.504 404.761 337.834 427.161 341.407C406.367 345.536 384.054 353.064 373.15 371.271ZM45.4071 51.1308C58.6767 44.1952 73.6223 39.8988 88.5706 40.838C79.0276 59.7351 57.3279 68.8513 36.8942 74.4763C59.4918 76.39 80.7464 90.1549 91.7123 109.976C67.8497 110.727 43.8063 102.863 25.0143 88.1596C23.994 87.3613 22.9895 86.6079 22.0272 85.8862C14.7224 80.4075 9.84943 76.7528 18.9858 69.1409C27.1725 62.3202 35.9488 56.074 45.4071 51.1308ZM691.693 262.698C678.673 255.244 663.341 252.509 648.347 252.892C637.66 253.166 627.01 254.914 616.635 257.44C605.057 260.259 607.82 265.706 611.962 273.872C612.508 274.947 613.077 276.069 613.641 277.239C624.028 298.792 642.158 316.504 663.937 326.374C662.849 303.67 649.834 281.875 630.371 270.162C651.224 274.127 674.758 275.505 691.693 262.698ZM559.915 213.538C562.001 198.666 567.22 183.974 576.715 172.339C586.569 191.169 581.339 214.185 574 234.128C588.757 216.83 612.402 207.556 634.985 210.211C621.665 230.099 601.207 245.095 578.233 251.813C576.986 252.177 575.785 252.555 574.635 252.917C565.897 255.668 560.068 257.502 559.189 245.604C558.401 234.943 558.427 224.138 559.915 213.538ZM413.667 494.412C398.7 495.237 384.354 501.254 371.986 509.692C363.17 515.707 355.185 522.933 347.856 530.659C339.674 539.281 344.95 542.334 352.858 546.909C353.899 547.511 354.986 548.14 356.094 548.811C376.507 561.185 401.33 566.158 424.957 562.608C411.717 544.24 388.968 533.088 366.284 533.845C385.927 525.865 406.415 514.274 413.667 494.412ZM687.728 25.8834C700.097 17.445 714.442 11.4281 729.409 10.6029C722.158 30.4653 701.669 42.0563 682.026 50.0356C704.711 49.2788 727.46 60.4306 740.699 78.7992C717.072 82.3493 692.249 77.3756 671.836 65.0022C670.728 64.3307 669.641 63.7018 668.6 63.0994C660.692 58.5246 655.417 55.4728 663.598 46.8498C670.928 39.1237 678.912 31.8975 687.728 25.8834ZM124.664 460.104C108.019 461.028 92.0659 467.775 78.3112 477.236C68.5079 483.979 59.6274 492.081 51.4764 500.744C42.3785 510.412 48.2451 513.834 57.0396 518.964L57.0418 518.965C58.1988 519.64 59.4066 520.345 60.6376 521.097C83.3381 534.97 110.944 540.547 137.218 536.567C122.495 515.972 97.197 503.467 71.9698 504.316C93.8148 495.369 116.6 482.373 124.664 460.104ZM524.906 620.023C530.331 633.913 532.951 649.168 530.37 663.85C512.655 652.33 505.994 629.863 502.659 609.033C498.268 631.174 482.255 650.681 461.362 659.344C463.245 635.659 473.706 612.743 490.38 595.776C491.285 594.854 492.144 593.944 492.966 593.072C499.213 586.45 503.379 582.032 509.932 591.907C515.803 600.756 521.039 610.124 524.906 620.023ZM583.178 497.251C570.159 489.797 554.827 487.062 539.833 487.445C529.146 487.719 518.495 489.466 508.121 491.993C496.542 494.812 499.306 500.259 503.448 508.425L503.448 508.426L503.451 508.432L503.452 508.433L503.455 508.438C503.998 509.509 504.565 510.627 505.126 511.792C515.513 533.345 533.643 551.057 555.423 560.927C554.334 538.223 541.32 516.428 521.857 504.715C542.709 508.68 566.243 510.058 583.178 497.251ZM582.954 23.2468C600.468 22.7974 618.377 26.0016 633.585 34.7334C613.803 49.7357 586.314 48.1208 561.957 43.4766C584.691 57.1975 599.894 82.7289 601.165 109.325C575.725 97.7625 554.548 77.0141 542.415 51.7667C541.757 50.3971 541.092 49.083 540.455 47.8241L540.454 47.8226C535.616 38.2577 532.389 31.8771 545.913 28.574C558.03 25.614 570.471 23.5669 582.954 23.2468ZM717.596 505.653C704.577 498.199 689.245 495.464 674.251 495.847C663.564 496.121 652.913 497.868 642.539 500.395C630.96 503.214 633.724 508.661 637.866 516.827L637.866 516.828C638.412 517.902 638.981 519.025 639.544 520.194C649.931 541.747 668.061 559.459 689.841 569.329C688.752 546.625 675.738 524.83 656.275 513.117C677.127 517.081 700.661 518.46 717.596 505.653ZM169.483 124.063C184.477 123.68 199.809 126.415 212.828 133.869C195.893 146.676 172.36 145.298 151.507 141.333C170.97 153.046 183.985 174.841 185.073 197.545C163.294 187.675 145.164 169.963 134.777 148.41C134.213 147.24 133.644 146.118 133.098 145.043C128.956 136.877 126.193 131.43 137.771 128.611C148.146 126.084 158.796 124.337 169.483 124.063ZM230.763 244.456C248.766 238.708 264.36 226.795 276.773 212.542C285.621 202.383 293.07 191.003 299.56 179.218C306.804 166.064 299.398 163.995 288.295 160.893C286.833 160.484 285.307 160.058 283.742 159.586C254.902 150.89 223.029 152.655 195.326 164.482C217.316 182.795 248.62 189.257 276.06 181.148C254.624 197.142 233.304 217.827 230.763 244.456ZM123.63 412.143C116.808 394.5 113.522 375.124 116.788 356.481C139.096 371.128 147.467 399.665 151.647 426.121C157.202 398.009 177.395 373.251 203.727 362.269C201.331 392.346 188.129 421.437 167.106 442.969C165.965 444.138 164.883 445.293 163.845 446.4C155.969 454.803 150.715 460.41 142.469 447.863C135.08 436.62 128.492 424.718 123.63 412.143ZM314.514 579.831C296.953 581.848 280.485 589.977 266.512 600.835C256.554 608.575 247.657 617.693 239.566 627.359C230.535 638.146 236.956 641.396 246.581 646.269L246.584 646.27C247.851 646.911 249.173 647.581 250.524 648.3C275.413 661.544 304.979 665.713 332.545 659.865C315.683 639.017 288.129 627.381 261.479 629.854C284.047 619.033 307.359 603.874 314.514 579.831ZM403.246 421.834C413.584 407.445 427.107 394.952 443.437 387.988C443.446 413.027 425.352 434.204 406.728 451.022C431.678 441.016 461.547 444.24 483.765 459.339C458.903 472.834 429.238 477.326 401.474 471.799C399.968 471.499 398.502 471.238 397.098 470.989L397.097 470.988L397.096 470.988C386.429 469.089 379.313 467.823 384.912 454.919C389.93 443.359 395.879 432.09 403.246 421.834ZM31.5042 438.571C44.6897 445.699 60.0863 448.088 75.0778 447.383C85.7625 446.881 96.3795 444.915 106.703 442.18C118.224 439.129 115.342 433.774 111.022 425.748C110.453 424.691 109.859 423.588 109.27 422.437C98.4124 401.24 79.8917 384.026 57.8914 374.685C59.4716 397.228 72.963 418.609 92.6864 429.831C71.7402 426.341 48.1683 425.478 31.5042 438.571ZM200.227 673.789C178.617 677.386 156.209 676.094 135.155 670.041C154.867 683.82 169.025 705.32 173.897 728.873C156.474 718.691 140.838 705.459 127.916 689.959C134.356 713.396 132.273 739.079 122.14 761.172C122.653 760.052 118.135 752.589 114.828 747.126C113.275 744.56 111.989 742.436 111.616 741.616C108.344 734.423 105.58 726.999 103.339 719.421C98.855 704.265 96.4627 688.486 96.2918 672.68C96.2811 671.685 96.2134 670.452 96.1381 669.081C95.8286 663.446 95.3911 655.482 98.2569 652.135C100.864 649.089 106.424 648.975 110.767 648.885C111.736 648.865 112.643 648.847 113.444 648.797C128.116 647.885 142.997 648.675 157.329 652.083C173.097 655.832 188.158 662.838 200.227 673.789ZM231.495 735.097C232.864 714.716 229.624 694.039 222.086 675.053C214.481 688.211 211.062 703.317 210.752 718.426C210.47 732.16 212.685 745.879 216.407 759.071C216.611 759.792 216.807 760.616 217.016 761.495C217.954 765.435 219.154 770.478 222.445 772.254C226.061 774.207 233.235 772.239 238.312 770.847L238.315 770.846L238.32 770.845C239.551 770.507 240.659 770.203 241.562 769.998C255.937 766.728 269.852 761.437 282.786 754.366C289.251 750.829 295.476 746.847 301.388 742.448C302.062 741.946 303.745 740.356 305.778 738.435C310.107 734.344 316.021 728.756 317.142 729.003C295.003 724.121 271.179 727.283 251.082 737.77C262.665 722.939 271.646 706.082 277.494 688.196C256.982 697.276 240.171 714.417 231.495 735.097ZM325 740.167C332.538 759.154 335.778 779.831 334.409 800.212C343.085 779.532 359.896 762.391 380.408 753.311C374.56 771.197 365.578 788.053 353.995 802.885C374.093 792.398 397.917 789.235 420.056 794.118C418.934 793.871 413.021 799.459 408.691 803.55C406.659 805.47 404.976 807.061 404.302 807.562C398.39 811.962 392.165 815.944 385.7 819.48C372.766 826.552 358.851 831.842 344.476 835.113C343.573 835.318 342.465 835.622 341.234 835.959L341.229 835.961L341.225 835.962C336.149 837.354 328.975 839.322 325.358 837.369C322.068 835.593 320.868 830.55 319.93 826.61L319.929 826.607C319.72 825.729 319.524 824.906 319.321 824.185C315.598 810.993 313.384 797.275 313.666 783.541C313.975 768.432 317.395 753.325 325 740.167ZM186.983 1174.74C203.026 1164.43 216.716 1150.52 226.738 1134.36C212.627 1136 199.394 1141.85 187.895 1150.01C177.442 1157.43 168.396 1166.71 160.586 1176.81C160.167 1177.35 159.67 1177.94 159.14 1178.58L159.133 1178.58L159.118 1178.6L159.11 1178.61L159.109 1178.61L159.109 1178.61C156.679 1181.5 153.569 1185.2 154.075 1188.64C154.631 1192.42 160.115 1196.67 163.994 1199.68C164.937 1200.41 165.785 1201.07 166.445 1201.63C176.925 1210.53 188.662 1217.96 201.188 1223.67C207.45 1226.52 213.911 1228.95 220.511 1230.91C221.262 1231.13 223.392 1231.5 225.964 1231.95L225.974 1231.95L225.975 1231.95C231.46 1232.9 238.948 1234.21 239.388 1235.18C230.683 1215.97 215.006 1199.97 195.919 1190.82C213.507 1191.21 231.159 1188.53 247.833 1182.95C229.57 1172.71 207.331 1169.71 186.983 1174.74ZM123.124 878.098C113.102 894.267 99.4118 908.172 83.3694 918.477C103.718 913.451 125.956 916.455 144.219 926.696C127.545 932.277 109.893 934.951 92.3048 934.559C111.392 943.71 127.069 959.708 135.775 978.921C135.334 977.947 127.838 976.645 122.352 975.692L122.352 975.692L122.345 975.69C119.775 975.244 117.648 974.874 116.897 974.651C110.297 972.689 103.836 970.264 97.5739 967.41C85.0483 961.7 73.3107 954.27 62.8308 945.373C62.174 944.815 61.3301 944.16 60.3919 943.432L60.3848 943.427L60.3806 943.424L60.3802 943.423C56.5009 940.414 51.0172 936.159 50.4615 932.379C49.9553 928.941 53.0635 925.245 55.4931 922.357L55.4935 922.357C56.0361 921.711 56.5449 921.106 56.972 920.554C64.7821 910.448 73.8281 901.176 84.2812 893.754C95.7797 885.588 109.013 879.743 123.124 878.098ZM262.278 950.645C252.706 967.144 246.855 985.801 245.289 1004.83C257.074 996.966 266.174 985.735 272.683 973.214C278.599 961.831 282.426 949.425 284.779 936.834C284.908 936.146 285.085 935.375 285.274 934.552L285.274 934.551C286.122 930.863 287.206 926.143 285.198 923.29C282.989 920.155 276.193 918.826 271.384 917.885L271.383 917.885L271.38 917.884L271.374 917.883L271.364 917.881C270.201 917.653 269.155 917.448 268.319 917.246C254.976 914.018 241.183 912.673 227.47 913.228C220.615 913.505 213.777 914.256 207.026 915.487C206.256 915.627 204.19 916.261 201.697 917.027L201.697 917.027L201.695 917.028C196.393 918.656 189.158 920.879 188.325 920.206C204.77 933.481 225.948 940.721 247.049 940.28C231.252 947.892 216.789 958.279 204.513 970.828C225.377 971.737 246.488 964.362 262.278 950.645ZM364.049 983.914C346.639 994.565 326.838 1001.27 306.547 1003.38C328.371 1008.42 348.089 1022.07 360.502 1040.75C341.908 1038.02 323.796 1032.03 307.235 1023.13C320.963 1041.16 328.112 1064.1 327.058 1086.75C327.112 1085.6 320.61 1080.72 315.85 1077.15L315.844 1077.14C313.612 1075.47 311.764 1074.08 311.156 1073.5C305.824 1068.42 300.851 1062.97 296.275 1057.2C287.124 1045.65 279.558 1032.84 273.904 1019.23C273.549 1018.37 273.062 1017.33 272.521 1016.17L272.52 1016.17L272.519 1016.17L272.518 1016.17L272.517 1016.17C270.287 1011.4 267.135 1004.66 268.444 1000.77C269.634 997.226 274.393 995.188 278.112 993.594C278.943 993.239 279.721 992.905 280.396 992.582C292.749 986.673 305.876 982.163 319.44 980.109C334.363 977.849 349.811 978.654 364.049 983.914ZM105.322 1286.84C83.5872 1291.42 62.8986 1300.92 45.2429 1314.43C61.2504 1318.53 78.0672 1317.66 93.9723 1313.52C108.43 1309.77 122.137 1303.4 134.85 1295.6C135.25 1295.35 135.687 1295.1 136.149 1294.84C136.485 1294.65 136.835 1294.45 137.195 1294.25L137.204 1294.25L137.207 1294.25C141.056 1292.1 145.982 1289.35 146.874 1285.38C147.854 1281.01 143.684 1274.06 140.734 1269.14C140.016 1267.95 139.371 1266.87 138.89 1265.98C131.24 1251.86 121.611 1238.82 110.405 1227.34C104.804 1221.6 98.8051 1216.24 92.4624 1211.33C91.7394 1210.78 89.5802 1209.48 86.9728 1207.91L86.9715 1207.91C81.4166 1204.58 73.8285 1200.02 73.7576 1198.77C75.1575 1223.44 85.4733 1247.51 102.36 1265.5C83.4299 1257.72 63.146 1253.27 42.7057 1252.41C58.2421 1271.26 81.1258 1283.84 105.322 1286.84ZM618.774 1205.07C608.079 1222.48 593.469 1237.44 576.349 1248.54C598.064 1243.13 621.796 1246.36 641.286 1257.38C623.492 1263.39 604.654 1266.27 585.885 1265.85C606.254 1275.7 622.984 1292.92 632.274 1313.6C631.804 1312.55 623.816 1311.15 617.964 1310.12C615.212 1309.64 612.932 1309.24 612.129 1309C605.085 1306.89 598.19 1304.28 591.507 1301.21C578.141 1295.06 565.615 1287.06 554.432 1277.49C553.728 1276.88 552.823 1276.18 551.817 1275.39C547.677 1272.15 541.825 1267.57 541.231 1263.5C540.691 1259.8 544.009 1255.82 546.602 1252.71C547.181 1252.02 547.724 1251.37 548.179 1250.77C556.513 1239.89 566.168 1229.91 577.322 1221.92C589.593 1213.13 603.716 1206.84 618.774 1205.07ZM422.444 1268.55C419.782 1288.78 421.69 1309.59 427.987 1329C436.402 1316.37 440.771 1301.53 442.043 1286.49C443.2 1272.82 441.87 1259 439.003 1245.62C438.846 1244.89 438.703 1244.05 438.55 1243.16C437.867 1239.17 436.994 1234.07 433.83 1232.09C430.352 1229.91 423.08 1231.42 417.934 1232.48L417.924 1232.48L417.912 1232.49L417.899 1232.49C416.662 1232.75 415.549 1232.98 414.643 1233.12C400.116 1235.46 385.918 1239.85 372.585 1246.07C365.918 1249.19 359.465 1252.76 353.295 1256.77C352.592 1257.22 350.815 1258.7 348.67 1260.48L348.669 1260.48L348.668 1260.49C344.095 1264.29 337.847 1269.48 336.745 1269.16C358.486 1275.44 382.419 1273.81 403.107 1264.64C390.623 1278.68 380.601 1294.91 373.635 1312.37C394.646 1304.62 412.483 1288.61 422.444 1268.55ZM500.076 747.869C495.492 767.815 486.42 786.706 473.735 802.729C492.586 790.622 516.105 786.065 538.087 790.261C523.142 801.676 506.209 810.457 488.291 816.087C510.732 818.887 532.076 829.85 547.473 846.483C546.693 845.64 538.669 846.879 532.796 847.786L532.794 847.787L532.793 847.787C530.037 848.212 527.755 848.565 526.918 848.595C519.57 848.854 512.205 848.593 504.892 847.824C490.268 846.289 475.849 842.725 462.197 837.234C461.337 836.888 460.252 836.506 459.046 836.081C454.091 834.338 447.089 831.875 445.229 828.207C443.537 824.867 445.414 820.025 446.88 816.242C447.207 815.399 447.513 814.609 447.755 813.899C452.184 800.903 458.149 788.333 466.171 777.172C474.997 764.892 486.372 754.385 500.076 747.869ZM700.626 811.272C687.8 830.671 679.36 852.96 676.118 875.998C691.039 867.262 702.921 854.24 711.734 839.461C719.743 826.029 725.279 811.205 729.029 796.051C729.233 795.223 729.504 794.297 729.792 793.309C731.083 788.881 732.737 783.214 730.486 779.602C728.013 775.631 719.816 773.536 714.017 772.053C712.607 771.692 711.339 771.368 710.329 771.062C694.286 766.196 677.561 763.589 660.802 763.3C652.423 763.155 644.033 763.588 635.715 764.61C634.767 764.727 632.209 765.352 629.12 766.107L629.119 766.107C622.539 767.716 613.551 769.914 612.582 769.037C631.705 786.346 657.022 796.643 682.782 797.59C662.988 805.74 644.624 817.36 628.779 831.765C654.155 834.338 680.413 826.849 700.626 811.272ZM604.235 1146.26C607.095 1126.08 614.542 1106.56 625.86 1089.57C608.023 1103.22 584.855 1109.77 562.465 1107.52C576.446 1094.91 592.65 1084.73 610.114 1077.59C587.385 1076.76 565.047 1067.74 548.173 1052.59C549.028 1053.35 556.955 1051.43 562.76 1050.02C565.488 1049.36 567.748 1048.81 568.585 1048.71C575.925 1047.81 583.328 1047.43 590.72 1047.56C605.508 1047.81 620.265 1050.1 634.421 1054.36C635.307 1054.63 636.42 1054.91 637.656 1055.22L637.669 1055.23L637.677 1055.23C642.793 1056.53 650.024 1058.36 652.206 1061.84C654.193 1065 652.733 1069.97 651.593 1073.84C651.339 1074.71 651.101 1075.52 650.92 1076.24C647.612 1089.51 642.727 1102.5 635.659 1114.26C627.884 1127.2 617.399 1138.61 604.235 1146.26ZM529.247 955.844C517.929 972.833 510.482 992.353 507.622 1012.53C520.787 1004.88 531.271 993.473 539.046 980.531C546.114 968.767 550.999 955.784 554.307 942.513C554.488 941.789 554.726 940.978 554.98 940.114C556.12 936.235 557.58 931.271 555.593 928.107C553.411 924.631 546.18 922.795 541.063 921.497L541.06 921.496L541.055 921.495C539.814 921.179 538.697 920.896 537.808 920.628C523.652 916.367 508.895 914.085 494.108 913.83C486.715 913.703 479.312 914.083 471.972 914.978C471.135 915.08 468.877 915.628 466.15 916.29L466.147 916.291C460.342 917.699 452.415 919.623 451.56 918.856C468.434 934.013 490.772 943.031 513.501 943.861C496.037 950.999 479.833 961.176 465.852 973.79C488.242 976.045 511.41 969.485 529.247 955.844ZM747 986.251C729.707 997.169 709.951 1004.18 689.629 1006.62C711.603 1011.3 731.604 1024.62 744.357 1043.07C725.66 1040.64 707.394 1034.95 690.638 1026.34C704.699 1044.12 712.24 1066.91 711.548 1089.55C711.583 1088.4 704.983 1083.63 700.151 1080.14C697.881 1078.5 696.001 1077.15 695.382 1076.58C689.951 1071.59 684.874 1066.22 680.191 1060.53C670.825 1049.15 663.029 1036.47 657.139 1022.97C656.768 1022.12 656.262 1021.09 655.7 1019.94L655.699 1019.94C653.385 1015.21 650.113 1008.53 651.363 1004.62C652.5 1001.06 657.243 998.952 660.948 997.301C661.774 996.933 662.549 996.587 663.221 996.254C675.519 990.154 688.614 985.439 702.189 983.169C717.122 980.671 732.631 981.227 747 986.251ZM374.55 731.765C366.229 716.051 355.623 701.554 343.172 688.876C338.085 683.696 310.409 660.349 308.221 674.811C306.234 687.949 321.154 705.242 330.246 712.703C342.816 723.018 358.573 728.827 374.55 731.765ZM606.935 964.846C615.393 980.448 621.561 997.276 625.184 1014.63C610.597 1007.36 597.028 997.402 587.794 984.028C581.115 974.353 571.57 953.648 577.166 941.637C583.329 928.414 603.48 958.472 606.935 964.846ZM505.468 1209.27C497.146 1193.56 486.54 1179.06 474.089 1166.38C469.002 1161.2 441.326 1137.86 439.139 1152.32C437.151 1165.46 452.072 1182.75 461.164 1190.21C473.733 1200.53 489.49 1206.33 505.468 1209.27ZM506.293 1045.26C518.745 1057.93 529.351 1072.43 537.672 1088.15C521.695 1085.21 505.938 1079.4 493.368 1069.08C484.276 1061.62 469.356 1044.33 471.343 1031.19C473.53 1016.73 501.207 1040.08 506.293 1045.26ZM737.899 1303.4C722.528 1294.72 705.88 1288.26 688.648 1284.29C681.609 1282.66 645.877 1277.86 651.733 1291.06C657.052 1303.05 678.82 1309.56 690.446 1310.96C706.52 1312.9 722.881 1309.4 737.899 1303.4ZM289.535 1159.2C303.126 1170.59 315.061 1183.96 324.843 1198.77C308.687 1197.4 292.471 1193.15 278.99 1184.12C269.238 1177.59 252.748 1161.86 253.456 1148.61C254.235 1134.03 283.982 1154.55 289.535 1159.2ZM218.429 1304.49C211.457 1288.14 202.118 1272.81 190.799 1259.15C186.175 1253.56 160.619 1228 157.264 1242.24C154.215 1255.17 167.608 1273.64 176.02 1281.83C187.65 1293.15 202.813 1300.24 218.429 1304.49ZM309.86 1109.23C326.656 1103.69 344.262 1100.58 361.948 1100.05C352.288 1113 340.164 1124.5 325.425 1131.18C314.763 1136.02 292.762 1141.74 281.915 1134.22C269.976 1125.94 302.998 1111.5 309.86 1109.23ZM354.948 943.913C347.976 927.56 338.636 912.232 327.317 898.565C322.693 892.982 297.137 867.42 293.782 881.656C290.734 894.588 304.126 913.061 312.538 921.249C324.168 932.57 339.332 939.663 354.948 943.913ZM173.63 880.123C189.503 872.157 206.539 866.504 224.03 863.395C216.33 877.695 205.968 890.907 192.304 899.708C182.421 906.075 161.402 914.978 149.527 909.068C136.453 902.562 167.145 883.378 173.63 880.123ZM91.0122 1011.83C80.5658 997.59 68.0424 984.873 53.9591 974.207C48.2055 969.849 17.5936 950.885 17.5027 965.397C17.4212 978.579 34.5967 993.424 44.6227 999.449C58.4852 1007.78 74.8453 1011.23 91.0122 1011.83ZM83.595 844.02C101.017 840.816 118.905 840.147 136.518 842.042C125.151 853.581 111.542 863.339 96.0021 867.959C84.7626 871.3 62.1542 873.968 52.4362 865.008C41.7377 855.144 76.4778 845.33 83.595 844.02ZM149.82 927.81C151.562 945.445 155.891 962.827 162.627 979.235C165.38 985.937 182.195 1017.96 189.741 1005.46C196.595 994.116 189.324 972.521 183.721 962.195C175.972 947.919 163.546 936.584 149.82 927.81ZM82.1195 808.347C68.36 797.246 56.2215 784.14 46.2062 769.574C62.3542 770.662 78.6083 774.609 92.2173 783.364C102.061 789.696 118.786 805.073 118.306 818.265C117.777 832.788 87.7407 812.883 82.1195 808.347ZM494.266 689.094C481.247 681.64 465.915 678.905 450.921 679.289C440.234 679.562 429.583 681.31 419.209 683.836C407.63 686.655 410.394 692.102 414.536 700.268C415.081 701.343 415.651 702.466 416.214 703.635C426.601 725.188 444.732 742.901 466.511 752.77C465.422 730.066 452.408 708.271 432.945 696.558C453.797 700.522 477.331 701.901 494.266 689.094ZM408.215 858.529C423.209 858.146 438.541 860.881 451.56 868.335C434.625 881.142 411.092 879.763 390.239 875.798C409.702 887.512 422.717 909.306 423.805 932.011C402.026 922.141 383.895 904.428 373.509 882.876C372.946 881.708 372.378 880.587 371.833 879.514L371.831 879.511L371.83 879.508C367.688 871.343 364.925 865.896 376.503 863.076C386.878 860.55 397.528 858.803 408.215 858.529ZM189.725 1092.58C202.527 1100.36 217.774 1103.51 232.771 1103.55C243.46 1103.58 254.154 1102.14 264.595 1099.92C276.246 1097.44 273.638 1091.95 269.73 1083.71C269.215 1082.63 268.677 1081.49 268.147 1080.31C258.375 1058.59 240.755 1040.46 219.266 1030.03C219.712 1052.64 232.104 1074.68 251.225 1086.88C230.496 1082.35 207.013 1080.32 189.725 1092.58ZM416.958 1014.59C403.213 1020.55 387.992 1023.75 373.15 1021.72C384.054 1003.51 406.367 995.982 427.161 991.853C404.761 988.281 384.57 972.95 375.087 952.315C398.944 953.314 422.349 962.945 440.015 979.033C440.973 979.906 441.919 980.733 442.826 981.525C449.711 987.543 454.304 991.558 444.633 998.503C435.967 1004.73 426.755 1010.33 416.958 1014.59ZM88.5706 691.285C73.6223 690.345 58.6767 694.642 45.4071 701.577C35.9488 706.521 27.1725 712.767 18.9858 719.588C9.84943 727.199 14.7224 730.854 22.0272 736.333C22.9895 737.055 23.994 737.808 25.0143 738.606C43.8063 753.309 67.8497 761.174 91.7123 760.423C80.7464 740.602 59.4918 726.837 36.8942 724.923C57.3279 719.298 79.0276 710.182 88.5706 691.285ZM648.347 903.339C663.341 902.956 678.673 905.691 691.693 913.145C674.758 925.952 651.224 924.573 630.371 920.608C649.834 932.322 662.849 954.117 663.937 976.821C642.158 966.951 624.028 949.238 613.641 927.686C613.077 926.517 612.508 925.395 611.963 924.32L611.963 924.319L611.962 924.318C607.82 916.153 605.057 910.706 616.635 907.886C627.01 905.36 637.66 903.613 648.347 903.339ZM576.715 822.786C567.22 834.42 562.001 849.113 559.915 863.985C558.427 874.584 558.401 885.39 559.189 896.05C560.068 907.949 565.897 906.114 574.635 903.364C575.785 903.002 576.986 902.624 578.233 902.259C601.207 895.542 621.665 880.545 634.985 860.657C612.402 858.002 588.757 867.276 574 884.574C581.339 864.631 586.569 841.615 576.715 822.786ZM371.986 1160.14C384.354 1151.7 398.7 1145.68 413.667 1144.86C406.415 1164.72 385.927 1176.31 366.284 1184.29C388.968 1183.53 411.717 1194.69 424.957 1213.05C401.33 1216.6 376.507 1211.63 356.094 1199.26C354.986 1198.59 353.899 1197.96 352.857 1197.35C344.95 1192.78 339.675 1189.73 347.856 1181.1C355.185 1173.38 363.17 1166.15 371.986 1160.14ZM729.409 661.049C714.442 661.875 700.097 667.892 687.728 676.33C678.912 682.344 670.928 689.57 663.598 697.296C655.416 705.919 660.692 708.971 668.601 713.547L668.603 713.548C669.643 714.15 670.729 714.778 671.836 715.449C692.249 727.822 717.072 732.796 740.699 729.246C727.46 710.877 704.711 699.725 682.026 700.482C701.669 692.503 722.158 680.912 729.409 661.049ZM78.3112 1127.68C92.0659 1118.22 108.019 1111.47 124.664 1110.55C116.6 1132.82 93.8148 1145.82 71.9698 1154.76C97.197 1153.91 122.495 1166.42 137.218 1187.01C110.944 1190.99 83.3381 1185.42 60.6376 1171.54C59.4058 1170.79 58.1974 1170.09 57.0397 1169.41C48.2451 1164.28 42.3784 1160.86 51.4764 1151.19C59.6274 1142.53 68.5079 1134.43 78.3112 1127.68ZM530.37 1314.3C532.951 1299.61 530.331 1284.36 524.906 1270.47C521.039 1260.57 515.803 1251.2 509.932 1242.35C503.379 1232.48 499.213 1236.9 492.966 1243.52C492.144 1244.39 491.285 1245.3 490.38 1246.22C473.706 1263.19 463.245 1286.11 461.362 1309.79C482.255 1301.13 498.268 1281.62 502.659 1259.48C505.994 1280.31 512.655 1302.78 530.37 1314.3ZM539.833 1137.89C554.827 1137.51 570.159 1140.24 583.178 1147.7C566.243 1160.5 542.709 1159.13 521.857 1155.16C541.32 1166.87 554.334 1188.67 555.423 1211.37C533.643 1201.5 515.513 1183.79 505.126 1162.24C504.563 1161.07 503.993 1159.95 503.448 1158.87C499.306 1150.71 496.542 1145.26 508.121 1142.44C518.495 1139.91 529.146 1138.17 539.833 1137.89ZM633.585 685.18C618.377 676.448 600.468 673.244 582.954 673.693C570.471 674.013 558.03 676.061 545.913 679.021C532.389 682.324 535.616 688.704 540.454 698.269C541.092 699.529 541.757 700.843 542.415 702.213C554.548 727.461 575.725 748.209 601.165 759.772C599.894 733.175 584.691 707.644 561.957 693.923C586.314 698.567 613.803 700.182 633.585 685.18ZM674.251 1146.29C689.245 1145.91 704.577 1148.65 717.596 1156.1C700.661 1168.91 677.127 1167.53 656.275 1163.56C675.738 1175.28 688.752 1197.07 689.841 1219.78C668.061 1209.91 649.931 1192.19 639.544 1170.64C638.981 1169.47 638.411 1168.35 637.866 1167.27C633.724 1159.11 630.96 1153.66 642.539 1150.84C652.913 1148.31 663.564 1146.57 674.251 1146.29ZM212.828 784.316C199.809 776.862 184.477 774.127 169.483 774.51C158.796 774.784 148.146 776.531 137.771 779.057C126.193 781.877 128.956 787.324 133.098 795.489L133.099 795.492C133.645 796.566 134.214 797.688 134.777 798.857C145.164 820.409 163.294 838.122 185.073 847.992C183.985 825.287 170.97 803.493 151.507 791.779C172.36 795.744 195.893 797.123 212.828 784.316ZM276.773 862.988C264.36 877.241 248.766 889.154 230.763 894.902C233.304 868.274 254.624 847.589 276.06 831.595C248.62 839.703 217.316 833.242 195.326 814.929C223.029 803.101 254.902 801.336 283.742 810.032C285.306 810.504 286.831 810.93 288.292 811.339L288.295 811.339C299.398 814.441 306.804 816.511 299.56 829.664C293.07 841.45 285.621 852.83 276.773 862.988ZM116.788 1006.93C113.522 1025.57 116.808 1044.95 123.63 1062.59C128.492 1075.16 135.08 1087.07 142.469 1098.31C150.715 1110.86 155.969 1105.25 163.845 1096.85C164.883 1095.74 165.965 1094.58 167.106 1093.42C188.129 1071.88 201.331 1042.79 203.727 1012.72C177.395 1023.7 157.202 1048.46 151.647 1076.57C147.467 1050.11 139.096 1021.57 116.788 1006.93ZM266.512 1251.28C280.485 1240.42 296.953 1232.29 314.514 1230.28C307.359 1254.32 284.047 1269.48 261.479 1280.3C288.129 1277.83 315.683 1289.46 332.545 1310.31C304.979 1316.16 275.413 1311.99 250.524 1298.75C249.173 1298.03 247.849 1297.36 246.581 1296.72C236.956 1291.84 230.535 1288.59 239.566 1277.81C247.657 1268.14 256.554 1259.02 266.512 1251.28ZM443.437 1038.43C427.107 1045.4 413.584 1057.89 403.246 1072.28C395.879 1082.54 389.93 1093.81 384.912 1105.37C379.313 1118.27 386.429 1119.54 397.096 1121.43C398.501 1121.68 399.967 1121.95 401.474 1122.25C429.238 1127.77 458.903 1123.28 483.765 1109.79C461.547 1094.69 431.678 1091.46 406.728 1101.47C425.352 1084.65 443.446 1063.47 443.437 1038.43ZM75.0778 1097.83C60.0863 1098.53 44.6897 1096.15 31.5042 1089.02C48.1683 1075.92 71.7402 1076.79 92.6864 1080.28C72.963 1069.06 59.4716 1047.67 57.8914 1025.13C79.8917 1034.47 98.4124 1051.69 109.27 1072.88C109.858 1074.03 110.45 1075.13 111.018 1076.19L111.022 1076.19C115.342 1084.22 118.224 1089.58 106.703 1092.63C96.3795 1095.36 85.7625 1097.33 75.0778 1097.83ZM135.155 19.5946C156.209 25.6479 178.617 26.939 200.227 23.3428C188.158 12.3917 173.097 5.38528 157.329 1.63618C142.997 -1.77208 128.116 -2.56102 113.444 -1.64961C112.643 -1.59994 111.735 -1.58122 110.767 -1.56126C106.424 -1.4717 100.864 -1.35704 98.2569 1.6884C95.3911 5.03545 95.8286 12.9998 96.1381 18.6347C96.2134 20.0052 96.2811 21.238 96.2918 22.233C96.4627 38.0392 98.855 53.8188 103.339 68.9747C105.58 76.5516 108.344 83.9767 111.616 91.1692C111.989 91.9892 113.275 94.1136 114.828 96.6789C118.135 102.143 122.653 109.606 122.14 110.725C132.273 88.6325 134.356 62.9499 127.916 39.5126C140.838 55.0121 156.474 68.2446 173.897 78.4267C169.025 54.8735 154.867 33.373 135.155 19.5946Z" fill="#659EC4"/>
</svg>
