<svg width="98" height="115" viewBox="0 0 98 115" fill="none" xmlns="http://www.w3.org/2000/svg">
<mask id="mask0_0_6431" style="mask-type:alpha" maskUnits="userSpaceOnUse" x="0" y="0" width="97" height="115">
<path fill-rule="evenodd" clip-rule="evenodd" d="M0.962891 1.90234L94.9486 0.261818L96.9207 113.245L2.93501 114.885L0.962891 1.90234Z" fill="white"/>
</mask>
<g mask="url(#mask0_0_6431)">
<path fill-rule="evenodd" clip-rule="evenodd" d="M6.69241 1.80233C6.69241 1.80233 -11.5653 47.7851 20.4937 85.6626C52.5531 123.54 96.8954 111.797 96.8954 111.797L6.69241 1.80233Z" fill="#194A4E"/>
</g>
<mask id="mask1_0_6431" style="mask-type:alpha" maskUnits="userSpaceOnUse" x="1" y="1" width="96" height="113">
<path fill-rule="evenodd" clip-rule="evenodd" d="M20.494 85.6625C40.885 109.754 66.246 113.772 82.0049 113.505L82.0847 113.504C91.0586 113.343 96.8954 111.797 96.8954 111.797L6.69237 1.80234C6.69237 1.80234 -11.5654 47.7851 20.494 85.6625Z" fill="white"/>
</mask>
<g mask="url(#mask1_0_6431)">
<path d="M-1.00195 17.5098C-1.00195 17.5098 4.38472 24.4222 11.6285 19.8798" stroke="#12746A" stroke-width="2.154"/>
</g>
<mask id="mask2_0_6431" style="mask-type:alpha" maskUnits="userSpaceOnUse" x="1" y="1" width="96" height="113">
<path fill-rule="evenodd" clip-rule="evenodd" d="M20.494 85.6625C40.885 109.754 66.246 113.772 82.0049 113.505L82.0847 113.504C91.0586 113.343 96.8954 111.797 96.8954 111.797L6.69237 1.80234C6.69237 1.80234 -11.5654 47.7851 20.494 85.6625Z" fill="white"/>
</mask>
<g mask="url(#mask2_0_6431)">
<path d="M-0.941406 38.9609C-0.941406 38.9609 12.2395 44.4855 20.8705 38.7569" stroke="#12746A" stroke-width="2.154"/>
</g>
<mask id="mask3_0_6431" style="mask-type:alpha" maskUnits="userSpaceOnUse" x="1" y="1" width="96" height="113">
<path fill-rule="evenodd" clip-rule="evenodd" d="M20.494 85.6625C40.885 109.754 66.246 113.772 82.0049 113.505L82.0847 113.504C91.0586 113.343 96.8954 111.797 96.8954 111.797L6.69237 1.80234C6.69237 1.80234 -11.5654 47.7851 20.494 85.6625Z" fill="white"/>
</mask>
<g mask="url(#mask3_0_6431)">
<path d="M3.08371 55.6865C3.08371 55.6865 18.0507 59.6528 29.8667 53.108" stroke="#12746A" stroke-width="2.154"/>
</g>
<mask id="mask4_0_6431" style="mask-type:alpha" maskUnits="userSpaceOnUse" x="1" y="1" width="96" height="113">
<path fill-rule="evenodd" clip-rule="evenodd" d="M20.494 85.6625C40.885 109.754 66.246 113.772 82.0049 113.505L82.0847 113.504C91.0586 113.343 96.8954 111.797 96.8954 111.797L6.69237 1.80234C6.69237 1.80234 -11.5654 47.7851 20.494 85.6625Z" fill="white"/>
</mask>
<g mask="url(#mask4_0_6431)">
<path d="M10.0953 74.2319C10.0953 74.2319 30.1182 77.7335 42.2781 70.111" stroke="#12746A" stroke-width="2.154"/>
</g>
<mask id="mask5_0_6431" style="mask-type:alpha" maskUnits="userSpaceOnUse" x="1" y="1" width="96" height="113">
<path fill-rule="evenodd" clip-rule="evenodd" d="M20.494 85.6625C40.885 109.754 66.246 113.772 82.0049 113.505L82.0847 113.504C91.0586 113.343 96.8954 111.797 96.8954 111.797L6.69237 1.80234C6.69237 1.80234 -11.5654 47.7851 20.494 85.6625Z" fill="white"/>
</mask>
<g mask="url(#mask5_0_6431)">
<path d="M26.4119 94.3651C26.4119 94.3651 47.1866 94.5343 59.1425 86.6433" stroke="#12746A" stroke-width="2.154"/>
</g>
<mask id="mask6_0_6431" style="mask-type:alpha" maskUnits="userSpaceOnUse" x="1" y="1" width="96" height="113">
<path fill-rule="evenodd" clip-rule="evenodd" d="M20.494 85.6625C40.885 109.754 66.246 113.772 82.0049 113.505L82.0847 113.504C91.0586 113.343 96.8954 111.797 96.8954 111.797L6.69237 1.80234C6.69237 1.80234 -11.5654 47.7851 20.494 85.6625Z" fill="white"/>
</mask>
<g mask="url(#mask6_0_6431)">
<path d="M54.791 111.647C54.791 111.647 67.8414 113.477 79.9253 102.481" stroke="#12746A" stroke-width="2.154"/>
</g>
<path fill-rule="evenodd" clip-rule="evenodd" d="M96.3252 111.955C96.3252 111.955 24.0723 83.9024 7.12305 2.49512C7.12305 2.49512 104.935 32.0094 96.3252 111.955Z" fill="#12746A"/>
<mask id="mask7_0_6431" style="mask-type:alpha" maskUnits="userSpaceOnUse" x="7" y="2" width="90" height="110">
<path fill-rule="evenodd" clip-rule="evenodd" d="M96.3252 111.955C104.934 32.0094 7.12305 2.49512 7.12305 2.49512C24.0721 83.9024 96.3252 111.955 96.3252 111.955Z" fill="white"/>
</mask>
<g mask="url(#mask7_0_6431)">
<path d="M20.1993 40.0358C20.1993 40.0358 37.2121 27.3257 34.1025 9.90154" stroke="#17887C" stroke-width="2.154"/>
</g>
<mask id="mask8_0_6431" style="mask-type:alpha" maskUnits="userSpaceOnUse" x="7" y="2" width="90" height="110">
<path fill-rule="evenodd" clip-rule="evenodd" d="M96.3252 111.955C104.934 32.0094 7.12305 2.49512 7.12305 2.49512C24.0721 83.9024 96.3252 111.955 96.3252 111.955Z" fill="white"/>
</mask>
<g mask="url(#mask8_0_6431)">
<path d="M28.3342 54.1287C28.3342 54.1287 48.5412 49.1871 55.1205 18.7249" stroke="#17887C" stroke-width="2.154"/>
</g>
<mask id="mask9_0_6431" style="mask-type:alpha" maskUnits="userSpaceOnUse" x="7" y="2" width="90" height="110">
<path fill-rule="evenodd" clip-rule="evenodd" d="M96.3252 111.955C104.934 32.0094 7.12305 2.49512 7.12305 2.49512C24.0721 83.9024 96.3252 111.955 96.3252 111.955Z" fill="white"/>
</mask>
<g mask="url(#mask9_0_6431)">
<path d="M38.7789 71.6108C38.7789 71.6108 69.7875 64.2382 74.3212 30.4932" stroke="#17887C" stroke-width="2.154"/>
</g>
<mask id="mask10_0_6431" style="mask-type:alpha" maskUnits="userSpaceOnUse" x="7" y="2" width="90" height="110">
<path fill-rule="evenodd" clip-rule="evenodd" d="M96.3252 111.955C104.934 32.0094 7.12305 2.49512 7.12305 2.49512C24.0721 83.9024 96.3252 111.955 96.3252 111.955Z" fill="white"/>
</mask>
<g mask="url(#mask10_0_6431)">
<path d="M55.2536 87.7961C55.2536 87.7961 84.4455 83.3683 92.5018 53.8114" stroke="#17887C" stroke-width="2.154"/>
</g>
<mask id="mask11_0_6431" style="mask-type:alpha" maskUnits="userSpaceOnUse" x="7" y="2" width="90" height="110">
<path fill-rule="evenodd" clip-rule="evenodd" d="M96.3252 111.955C104.934 32.0094 7.12305 2.49512 7.12305 2.49512C24.0721 83.9024 96.3252 111.955 96.3252 111.955Z" fill="white"/>
</mask>
<g mask="url(#mask11_0_6431)">
<path d="M72.6381 102.51C72.6381 102.51 93.9949 107.483 102.62 80.304" stroke="#17887C" stroke-width="2.154"/>
</g>
<mask id="mask12_0_6431" style="mask-type:alpha" maskUnits="userSpaceOnUse" x="7" y="2" width="90" height="110">
<path fill-rule="evenodd" clip-rule="evenodd" d="M96.3252 111.955C104.934 32.0094 7.12305 2.49512 7.12305 2.49512C24.0721 83.9024 96.3252 111.955 96.3252 111.955Z" fill="white"/>
</mask>
<g mask="url(#mask12_0_6431)">
<path d="M8.09411 22.3666C8.09411 22.3666 23.3139 17.4914 20.8104 1.75327" stroke="#17887C" stroke-width="2.154"/>
</g>
</svg>
